<svg width="85" height="87" viewBox="0 0 85 87" fill="none" xmlns="http://www.w3.org/2000/svg">
<mask id="path-1-outside-1_14_29" maskUnits="userSpaceOnUse" x="0" y="0" width="85" height="87" fill="black">
<rect fill="white" width="85" height="87"/>
<path d="M38.5149 1.00992C39.0426 1.46125 40.355 1.61103 41.0735 1.69742C40.7424 1.71738 40.6103 1.66798 40.3713 1.83316C40.6896 2.24828 43.269 2.20311 43.8645 2.21597C45.3334 2.68059 47.1438 3.66833 48.3498 4.60269C49.2238 5.27994 51.3165 7.84849 52.1779 8.00699C53.2741 8.20844 56.3581 7.64644 57.7512 7.61441C59.4751 7.57487 59.923 7.64177 61.5988 7.90933C68.1087 8.94878 73.3623 12.8552 76.3947 18.7062C78.3804 22.5373 78.5079 26.7576 77.9514 30.9777C77.8113 32.0396 77.3179 33.547 77.0891 34.6828C79.9264 36.7087 82.5691 42.0111 83.0617 45.4113C83.7914 50.4477 83.3104 56.362 80.299 60.6378C76.5099 66.0179 73.2223 67.6369 67.1057 69.2267C66.1689 70.7816 65.7414 72.7681 64.8049 74.4064C63.4044 76.8565 60.3323 80.1032 58.0295 81.6974C50.5969 86.8426 39.072 86.0971 33.1457 78.9787C33.0512 78.8668 32.1886 78.0675 31.9211 78.0636C29.8588 78.0336 27.4862 78.4882 25.3811 78.4044C13.2204 78.2229 3.53908 67.3029 5.95919 55.1378C6.19466 53.9545 6.71748 52.5607 6.69259 51.3595C6.08507 50.4989 5.1422 49.5442 4.43576 48.7101C3.00842 47.0248 1.5228 43.7076 1.06857 41.5812C1.18353 40.6249 1.03573 39.6084 1.01486 38.6144C0.994594 36.9709 0.995191 35.3273 1.01583 33.6837C1.02557 32.8209 1.25306 31.8129 1.18283 31.0744C1.23719 30.4901 1.78415 29.059 2.01681 28.4904C2.61115 28.196 2.43185 28.1357 2.89279 27.5294L2.96212 27.5939C3.11417 26.0809 7.09777 21.9742 8.36837 20.8712C8.57973 20.6878 9.88699 20.0677 10.2258 19.7873C12.4147 17.975 15.3758 18.5782 17.4592 16.8517C17.7422 16.607 18.6357 13.1401 18.5832 12.7189C19.2706 10.3059 22.5445 7.23375 24.3488 5.5773C28.1291 2.10699 33.5183 0.874759 38.5149 1.00992ZM55.9387 40.1466C54.9178 40.6725 55.4557 47.3895 55.5637 48.4962C55.6512 49.3942 55.5126 50.5401 55.5344 51.4425L55.6047 51.4435C55.6353 51.0017 55.6765 50.2883 55.7561 50.1701C55.7523 52.7064 55.7696 55.2426 55.8098 57.7785C55.8285 59.1979 56.1198 63.5659 55.2277 64.7707C54.8471 65.2843 52.7449 66.3452 52.0442 66.7462L44.8781 70.7746C43.1411 71.759 41.3945 72.9253 39.6867 73.9826C38.8349 74.5098 36.532 75.5056 36.3244 76.3859C36.4337 76.9366 37.1276 77.3818 37.5598 77.671C41.148 80.0717 45.1414 81.8281 49.5393 80.7521C53.838 79.7004 58.2115 77.3831 60.6018 73.4953C61.7181 71.6795 62.8923 69.2619 63.2649 67.1916C63.446 66.7887 63.9594 65.2073 63.886 64.8009C63.8141 63.6318 63.8846 61.7814 63.8889 60.5675L63.8957 51.7726C63.8952 49.1987 63.9534 46.9743 63.6672 44.4103C63.3623 44.1722 63.1036 44.0128 62.7756 43.8078C62.5668 43.6372 61.6084 43.1574 61.2844 42.9767C59.5357 42.0016 57.9412 41.0152 56.0617 40.299L55.9387 40.1466ZM51.5979 53.2746C51.1746 53.4305 50.6265 53.7042 50.2063 53.8986C48.7986 54.5293 47.364 55.6862 45.9973 56.4894C42.5361 58.5235 39.1343 60.5491 35.6223 62.5138C34.3873 63.2048 32.3776 64.7212 31.1545 65.256C29.2446 66.0911 25.3367 62.663 23.5861 61.8C19.0535 59.5393 14.7879 56.5686 10.2326 54.3966C9.18342 57.7735 9.42472 62.3163 11.0315 65.4669C12.7693 68.8744 17.3147 72.5891 20.9934 73.7326C24.8243 74.9233 29.694 74.6967 33.26 72.7541C34.304 72.1852 35.3982 71.4892 36.4494 70.8918L44.5598 66.3048C46.7243 65.0665 48.9396 64.0345 50.9621 62.5382C51.3898 62.2219 51.498 62.2078 51.6496 61.6681C51.9281 60.5662 51.8297 54.469 51.5979 53.2746ZM52.9963 25.4132C51.701 26.5255 47.7908 28.2499 46.4533 29.3742C46.47 29.4454 46.4916 29.5354 46.5168 29.6427C49.4919 32.0676 54.025 34.0809 57.2668 35.9445C59.5334 37.2474 60.4539 37.7578 62.3781 38.9093C64.0044 39.8825 66.0878 40.7524 67.1486 41.9582C67.0918 45.8268 67.1462 49.7736 67.1272 53.6535C67.1093 57.303 67.051 60.6014 67.3733 64.2433L67.4211 64.4601C68.3296 64.9893 70.3768 63.8072 71.2688 63.5421C71.3415 63.5502 71.6539 63.5786 71.7033 63.5636C72.7432 63.2465 75.0593 61.5407 75.6662 60.8195L75.6145 60.5822C75.8446 60.3564 75.7304 60.3997 76.0969 60.4025C76.2979 59.8521 76.3234 59.4203 76.9221 59.3029C77.2174 59.0993 77.3155 58.5024 77.4162 58.1339L77.4973 58.1105L77.6281 58.1984C78.282 57.4305 78.1645 56.9784 78.1389 55.9552C78.1791 55.6699 78.8395 53.5628 78.9895 52.7941C79.2158 52.3477 79.259 52.2484 79.6311 51.923C79.9463 51.2422 79.909 50.7526 79.8772 50.0255C79.8782 49.4594 79.8872 48.8932 79.9035 48.3273C79.9075 48.2721 79.9112 48.2166 79.9152 48.1613C79.6447 47.2888 79.5031 45.9067 78.7942 45.3195C78.4641 43.097 76.232 39.1635 74.5852 37.6359C71.9566 35.1976 67.6091 33.0523 64.4709 31.1837C62.3911 29.9456 60.304 28.7193 58.2102 27.505C56.3266 26.4213 55.2403 25.5056 52.9963 25.4132ZM16.3391 21.2531C15.9873 21.2494 16.1155 21.2059 15.8449 21.3966C15.5192 21.4337 15.2774 21.4947 14.966 21.59C9.2204 23.3482 5.53913 28.2405 4.68966 34.1759C4.54064 34.7805 4.18274 36.0401 4.11349 36.6007C3.98468 37.2946 4.03097 39.6412 4.41134 40.2179L4.47482 40.2013C4.46238 40.0828 4.42409 39.7718 4.40744 39.548L4.37326 39.5509L4.40744 39.5431C4.40038 39.4471 4.3968 39.3676 4.40158 39.3273L4.56369 39.5109H4.56662C4.56752 39.5126 4.56768 39.5151 4.56857 39.5168L4.5881 39.5382H4.57833C4.96472 40.3204 4.28755 41.6274 5.06564 42.4523C5.2142 42.2723 5.17054 42.2888 5.22091 42.0265C5.34457 42.3383 5.28583 42.3851 5.17013 42.7648C6.9031 46.6283 8.69359 49.6431 12.8381 51.4357C13.2546 51.6159 13.2247 51.8201 13.4651 52.0568C13.6322 52.2211 14.3576 52.1407 14.5656 52.1623C14.7348 52.1798 14.9089 52.7823 15.1018 52.9611C15.303 53.1474 16.265 53.2042 16.2766 53.214C16.7433 53.764 17.1715 54.2078 18.0393 54.1798C18.6292 55.1552 18.6886 54.9455 19.719 55.4123C19.947 55.5161 20.0763 56.1412 20.5754 56.2404C21.4013 56.4582 21.7911 56.4868 22.3059 57.2189C22.328 57.2203 23.2242 57.2642 23.2326 57.2648C23.5616 58.522 25.0199 58.0922 25.4602 58.6408C25.5289 59.0129 25.4583 58.9014 25.6887 59.1281C26.7524 59.3794 26.6223 58.8579 27.3928 60.0421C27.5167 60.2326 28.4625 60.2658 28.7434 60.5119L28.7776 60.839C28.9992 60.9521 29.8627 61.2388 30.1252 61.1593C30.1366 61.1558 30.2664 61.1116 30.2785 61.1066C30.5752 60.9856 31.4396 60.8917 31.6438 60.7726C32.6006 60.213 33.534 59.5824 34.4875 59.006C35.4307 58.4358 36.3475 57.8761 37.3127 57.3429C37.4332 57.2762 37.6219 57.049 37.6789 56.925C37.7838 56.696 37.7565 56.487 37.6545 56.257C37.4279 55.7462 36.9038 55.4118 36.4807 55.0724C36.4887 55.024 36.4971 54.9752 36.5051 54.9269C35.8925 54.5719 35.0949 54.286 34.4465 54.0236C34.22 53.9319 33.9788 53.9367 33.8615 53.9386L22.4553 47.589C21.0499 46.7894 18.151 45.2482 17.0149 44.3332C16.2104 42.3641 16.8033 40.7059 16.7951 38.7091C16.7716 32.9484 16.969 27.1712 16.5139 21.425C16.5139 21.425 16.3547 21.2685 16.3391 21.2531ZM42.2131 32.5636C41.8215 32.4778 41.4938 32.5404 41.1233 32.6798C40.3013 32.9894 39.5136 33.5326 38.7424 33.9572C36.8301 35.01 34.8729 36.0455 33.0422 37.2345C32.0297 37.9707 32.2128 40.747 32.2238 41.9044C32.2391 43.4926 32.2225 45.1651 32.3078 46.7482C32.232 47.174 32.3576 48.6419 32.8557 48.7209C33.3244 48.9555 33.7697 49.3132 34.2297 49.5802C35.5578 50.3513 41.1706 53.6397 42.3811 53.5353C42.6741 53.51 42.9913 53.3652 43.2492 53.2316C44.0518 52.8156 44.7856 52.2543 45.5793 51.8175C47.2632 50.8912 49.0387 50.0453 50.6447 48.9865C50.9147 48.8085 51.1405 48.6053 51.3508 48.3585C51.9686 47.3241 51.7529 43.1311 51.761 41.672C51.765 40.913 51.4585 38.377 51.2981 37.508C51.2256 37.4386 51.1612 37.3775 51.1067 37.3253C50.1241 36.5078 43.3999 32.8242 42.2131 32.5636ZM47.5461 9.28628C43.3514 5.53173 37.6704 3.93403 32.2854 5.95816C31.73 6.14436 31.1832 6.43696 30.633 6.62515C25.2088 8.4799 21.185 14.3239 20.4699 19.9884C20.2508 20.3261 20.1271 21.8673 20.1916 22.2843C20.0909 23.2857 20.13 24.761 20.1291 25.8097L20.1281 31.7599L20.132 37.1447C20.133 37.9648 20.1019 39.488 20.1838 40.2658C20.1387 40.8881 20.1119 41.2714 20.4182 41.8175C20.6371 41.9745 20.6967 42.0153 20.9445 42.1193C23.2667 43.231 25.2988 44.5308 27.5705 45.675L28.0256 45.9201C28.2666 45.972 28.4818 45.9586 28.6535 45.7902C28.7761 44.8273 28.7599 43.6132 28.7736 42.6222C28.8114 39.9129 28.6963 37.192 28.6438 34.4796C28.3149 34.4042 28.6842 34.5249 28.385 34.6935C28.1595 33.8925 28.2833 32.2208 28.2463 31.3224C28.1308 28.5128 28.3954 25.0749 28.2219 22.3478C28.3347 21.6854 28.5625 21.3683 28.9367 20.8429C29.6756 20.6239 32.7763 18.766 33.6135 18.2814L44.4113 11.9298C45.4443 11.3139 47.4399 10.7775 47.6848 9.60855C47.6685 9.51304 47.6185 9.3512 47.5461 9.28628ZM61.4367 11.9191C58.6003 11.3513 55.6659 11.5118 52.9084 12.3859C50.6468 13.0879 48.8778 14.3379 46.8508 15.4943C42.1866 18.1552 37.2009 20.7256 32.717 23.6398C31.8375 25.3611 32.2141 30.5916 32.2727 32.7072C32.5038 32.5837 32.7848 32.4669 33.0324 32.3742C34.8271 31.7016 36.2384 30.5178 37.8772 29.5607L48.1994 23.6261C50.8436 22.0825 52.8198 19.4614 55.9748 21.4474C60.1859 24.0982 64.5546 26.4699 68.8733 28.9484C68.8548 29.1572 68.8397 29.5073 69.0188 29.6212C70.2207 30.3845 71.1925 31.0891 72.5217 31.5226C72.7647 31.4943 72.7781 31.477 72.9924 31.3468C74.4635 31.9784 74.1329 29.3758 74.2356 28.4728C74.9317 22.3459 72.0545 17.8189 67.1828 14.381C65.2641 13.0269 63.7364 12.4027 61.4367 11.9191Z"/>
</mask>
<path d="M38.5149 1.00992C39.0426 1.46125 40.355 1.61103 41.0735 1.69742C40.7424 1.71738 40.6103 1.66798 40.3713 1.83316C40.6896 2.24828 43.269 2.20311 43.8645 2.21597C45.3334 2.68059 47.1438 3.66833 48.3498 4.60269C49.2238 5.27994 51.3165 7.84849 52.1779 8.00699C53.2741 8.20844 56.3581 7.64644 57.7512 7.61441C59.4751 7.57487 59.923 7.64177 61.5988 7.90933C68.1087 8.94878 73.3623 12.8552 76.3947 18.7062C78.3804 22.5373 78.5079 26.7576 77.9514 30.9777C77.8113 32.0396 77.3179 33.547 77.0891 34.6828C79.9264 36.7087 82.5691 42.0111 83.0617 45.4113C83.7914 50.4477 83.3104 56.362 80.299 60.6378C76.5099 66.0179 73.2223 67.6369 67.1057 69.2267C66.1689 70.7816 65.7414 72.7681 64.8049 74.4064C63.4044 76.8565 60.3323 80.1032 58.0295 81.6974C50.5969 86.8426 39.072 86.0971 33.1457 78.9787C33.0512 78.8668 32.1886 78.0675 31.9211 78.0636C29.8588 78.0336 27.4862 78.4882 25.3811 78.4044C13.2204 78.2229 3.53908 67.3029 5.95919 55.1378C6.19466 53.9545 6.71748 52.5607 6.69259 51.3595C6.08507 50.4989 5.1422 49.5442 4.43576 48.7101C3.00842 47.0248 1.5228 43.7076 1.06857 41.5812C1.18353 40.6249 1.03573 39.6084 1.01486 38.6144C0.994594 36.9709 0.995191 35.3273 1.01583 33.6837C1.02557 32.8209 1.25306 31.8129 1.18283 31.0744C1.23719 30.4901 1.78415 29.059 2.01681 28.4904C2.61115 28.196 2.43185 28.1357 2.89279 27.5294L2.96212 27.5939C3.11417 26.0809 7.09777 21.9742 8.36837 20.8712C8.57973 20.6878 9.88699 20.0677 10.2258 19.7873C12.4147 17.975 15.3758 18.5782 17.4592 16.8517C17.7422 16.607 18.6357 13.1401 18.5832 12.7189C19.2706 10.3059 22.5445 7.23375 24.3488 5.5773C28.1291 2.10699 33.5183 0.874759 38.5149 1.00992ZM55.9387 40.1466C54.9178 40.6725 55.4557 47.3895 55.5637 48.4962C55.6512 49.3942 55.5126 50.5401 55.5344 51.4425L55.6047 51.4435C55.6353 51.0017 55.6765 50.2883 55.7561 50.1701C55.7523 52.7064 55.7696 55.2426 55.8098 57.7785C55.8285 59.1979 56.1198 63.5659 55.2277 64.7707C54.8471 65.2843 52.7449 66.3452 52.0442 66.7462L44.8781 70.7746C43.1411 71.759 41.3945 72.9253 39.6867 73.9826C38.8349 74.5098 36.532 75.5056 36.3244 76.3859C36.4337 76.9366 37.1276 77.3818 37.5598 77.671C41.148 80.0717 45.1414 81.8281 49.5393 80.7521C53.838 79.7004 58.2115 77.3831 60.6018 73.4953C61.7181 71.6795 62.8923 69.2619 63.2649 67.1916C63.446 66.7887 63.9594 65.2073 63.886 64.8009C63.8141 63.6318 63.8846 61.7814 63.8889 60.5675L63.8957 51.7726C63.8952 49.1987 63.9534 46.9743 63.6672 44.4103C63.3623 44.1722 63.1036 44.0128 62.7756 43.8078C62.5668 43.6372 61.6084 43.1574 61.2844 42.9767C59.5357 42.0016 57.9412 41.0152 56.0617 40.299L55.9387 40.1466ZM51.5979 53.2746C51.1746 53.4305 50.6265 53.7042 50.2063 53.8986C48.7986 54.5293 47.364 55.6862 45.9973 56.4894C42.5361 58.5235 39.1343 60.5491 35.6223 62.5138C34.3873 63.2048 32.3776 64.7212 31.1545 65.256C29.2446 66.0911 25.3367 62.663 23.5861 61.8C19.0535 59.5393 14.7879 56.5686 10.2326 54.3966C9.18342 57.7735 9.42472 62.3163 11.0315 65.4669C12.7693 68.8744 17.3147 72.5891 20.9934 73.7326C24.8243 74.9233 29.694 74.6967 33.26 72.7541C34.304 72.1852 35.3982 71.4892 36.4494 70.8918L44.5598 66.3048C46.7243 65.0665 48.9396 64.0345 50.9621 62.5382C51.3898 62.2219 51.498 62.2078 51.6496 61.6681C51.9281 60.5662 51.8297 54.469 51.5979 53.2746ZM52.9963 25.4132C51.701 26.5255 47.7908 28.2499 46.4533 29.3742C46.47 29.4454 46.4916 29.5354 46.5168 29.6427C49.4919 32.0676 54.025 34.0809 57.2668 35.9445C59.5334 37.2474 60.4539 37.7578 62.3781 38.9093C64.0044 39.8825 66.0878 40.7524 67.1486 41.9582C67.0918 45.8268 67.1462 49.7736 67.1272 53.6535C67.1093 57.303 67.051 60.6014 67.3733 64.2433L67.4211 64.4601C68.3296 64.9893 70.3768 63.8072 71.2688 63.5421C71.3415 63.5502 71.6539 63.5786 71.7033 63.5636C72.7432 63.2465 75.0593 61.5407 75.6662 60.8195L75.6145 60.5822C75.8446 60.3564 75.7304 60.3997 76.0969 60.4025C76.2979 59.8521 76.3234 59.4203 76.9221 59.3029C77.2174 59.0993 77.3155 58.5024 77.4162 58.1339L77.4973 58.1105L77.6281 58.1984C78.282 57.4305 78.1645 56.9784 78.1389 55.9552C78.1791 55.6699 78.8395 53.5628 78.9895 52.7941C79.2158 52.3477 79.259 52.2484 79.6311 51.923C79.9463 51.2422 79.909 50.7526 79.8772 50.0255C79.8782 49.4594 79.8872 48.8932 79.9035 48.3273C79.9075 48.2721 79.9112 48.2166 79.9152 48.1613C79.6447 47.2888 79.5031 45.9067 78.7942 45.3195C78.4641 43.097 76.232 39.1635 74.5852 37.6359C71.9566 35.1976 67.6091 33.0523 64.4709 31.1837C62.3911 29.9456 60.304 28.7193 58.2102 27.505C56.3266 26.4213 55.2403 25.5056 52.9963 25.4132ZM16.3391 21.2531C15.9873 21.2494 16.1155 21.2059 15.8449 21.3966C15.5192 21.4337 15.2774 21.4947 14.966 21.59C9.2204 23.3482 5.53913 28.2405 4.68966 34.1759C4.54064 34.7805 4.18274 36.0401 4.11349 36.6007C3.98468 37.2946 4.03097 39.6412 4.41134 40.2179L4.47482 40.2013C4.46238 40.0828 4.42409 39.7718 4.40744 39.548L4.37326 39.5509L4.40744 39.5431C4.40038 39.4471 4.3968 39.3676 4.40158 39.3273L4.56369 39.5109H4.56662C4.56752 39.5126 4.56768 39.5151 4.56857 39.5168L4.5881 39.5382H4.57833C4.96472 40.3204 4.28755 41.6274 5.06564 42.4523C5.2142 42.2723 5.17054 42.2888 5.22091 42.0265C5.34457 42.3383 5.28583 42.3851 5.17013 42.7648C6.9031 46.6283 8.69359 49.6431 12.8381 51.4357C13.2546 51.6159 13.2247 51.8201 13.4651 52.0568C13.6322 52.2211 14.3576 52.1407 14.5656 52.1623C14.7348 52.1798 14.9089 52.7823 15.1018 52.9611C15.303 53.1474 16.265 53.2042 16.2766 53.214C16.7433 53.764 17.1715 54.2078 18.0393 54.1798C18.6292 55.1552 18.6886 54.9455 19.719 55.4123C19.947 55.5161 20.0763 56.1412 20.5754 56.2404C21.4013 56.4582 21.7911 56.4868 22.3059 57.2189C22.328 57.2203 23.2242 57.2642 23.2326 57.2648C23.5616 58.522 25.0199 58.0922 25.4602 58.6408C25.5289 59.0129 25.4583 58.9014 25.6887 59.1281C26.7524 59.3794 26.6223 58.8579 27.3928 60.0421C27.5167 60.2326 28.4625 60.2658 28.7434 60.5119L28.7776 60.839C28.9992 60.9521 29.8627 61.2388 30.1252 61.1593C30.1366 61.1558 30.2664 61.1116 30.2785 61.1066C30.5752 60.9856 31.4396 60.8917 31.6438 60.7726C32.6006 60.213 33.534 59.5824 34.4875 59.006C35.4307 58.4358 36.3475 57.8761 37.3127 57.3429C37.4332 57.2762 37.6219 57.049 37.6789 56.925C37.7838 56.696 37.7565 56.487 37.6545 56.257C37.4279 55.7462 36.9038 55.4118 36.4807 55.0724C36.4887 55.024 36.4971 54.9752 36.5051 54.9269C35.8925 54.5719 35.0949 54.286 34.4465 54.0236C34.22 53.9319 33.9788 53.9367 33.8615 53.9386L22.4553 47.589C21.0499 46.7894 18.151 45.2482 17.0149 44.3332C16.2104 42.3641 16.8033 40.7059 16.7951 38.7091C16.7716 32.9484 16.969 27.1712 16.5139 21.425C16.5139 21.425 16.3547 21.2685 16.3391 21.2531ZM42.2131 32.5636C41.8215 32.4778 41.4938 32.5404 41.1233 32.6798C40.3013 32.9894 39.5136 33.5326 38.7424 33.9572C36.8301 35.01 34.8729 36.0455 33.0422 37.2345C32.0297 37.9707 32.2128 40.747 32.2238 41.9044C32.2391 43.4926 32.2225 45.1651 32.3078 46.7482C32.232 47.174 32.3576 48.6419 32.8557 48.7209C33.3244 48.9555 33.7697 49.3132 34.2297 49.5802C35.5578 50.3513 41.1706 53.6397 42.3811 53.5353C42.6741 53.51 42.9913 53.3652 43.2492 53.2316C44.0518 52.8156 44.7856 52.2543 45.5793 51.8175C47.2632 50.8912 49.0387 50.0453 50.6447 48.9865C50.9147 48.8085 51.1405 48.6053 51.3508 48.3585C51.9686 47.3241 51.7529 43.1311 51.761 41.672C51.765 40.913 51.4585 38.377 51.2981 37.508C51.2256 37.4386 51.1612 37.3775 51.1067 37.3253C50.1241 36.5078 43.3999 32.8242 42.2131 32.5636ZM47.5461 9.28628C43.3514 5.53173 37.6704 3.93403 32.2854 5.95816C31.73 6.14436 31.1832 6.43696 30.633 6.62515C25.2088 8.4799 21.185 14.3239 20.4699 19.9884C20.2508 20.3261 20.1271 21.8673 20.1916 22.2843C20.0909 23.2857 20.13 24.761 20.1291 25.8097L20.1281 31.7599L20.132 37.1447C20.133 37.9648 20.1019 39.488 20.1838 40.2658C20.1387 40.8881 20.1119 41.2714 20.4182 41.8175C20.6371 41.9745 20.6967 42.0153 20.9445 42.1193C23.2667 43.231 25.2988 44.5308 27.5705 45.675L28.0256 45.9201C28.2666 45.972 28.4818 45.9586 28.6535 45.7902C28.7761 44.8273 28.7599 43.6132 28.7736 42.6222C28.8114 39.9129 28.6963 37.192 28.6438 34.4796C28.3149 34.4042 28.6842 34.5249 28.385 34.6935C28.1595 33.8925 28.2833 32.2208 28.2463 31.3224C28.1308 28.5128 28.3954 25.0749 28.2219 22.3478C28.3347 21.6854 28.5625 21.3683 28.9367 20.8429C29.6756 20.6239 32.7763 18.766 33.6135 18.2814L44.4113 11.9298C45.4443 11.3139 47.4399 10.7775 47.6848 9.60855C47.6685 9.51304 47.6185 9.3512 47.5461 9.28628ZM61.4367 11.9191C58.6003 11.3513 55.6659 11.5118 52.9084 12.3859C50.6468 13.0879 48.8778 14.3379 46.8508 15.4943C42.1866 18.1552 37.2009 20.7256 32.717 23.6398C31.8375 25.3611 32.2141 30.5916 32.2727 32.7072C32.5038 32.5837 32.7848 32.4669 33.0324 32.3742C34.8271 31.7016 36.2384 30.5178 37.8772 29.5607L48.1994 23.6261C50.8436 22.0825 52.8198 19.4614 55.9748 21.4474C60.1859 24.0982 64.5546 26.4699 68.8733 28.9484C68.8548 29.1572 68.8397 29.5073 69.0188 29.6212C70.2207 30.3845 71.1925 31.0891 72.5217 31.5226C72.7647 31.4943 72.7781 31.477 72.9924 31.3468C74.4635 31.9784 74.1329 29.3758 74.2356 28.4728C74.9317 22.3459 72.0545 17.8189 67.1828 14.381C65.2641 13.0269 63.7364 12.4027 61.4367 11.9191Z" fill="black" fill-opacity="0.941176"/>
<path d="M38.5149 1.00992L39.1648 0.249944L38.8958 0.0198551L38.5419 0.0102826L38.5149 1.00992ZM41.0735 1.69742L41.1336 2.6956L41.1928 0.704568L41.0735 1.69742ZM40.3713 1.83316L39.8028 1.01051L38.9385 1.60783L39.5777 2.4416L40.3713 1.83316ZM43.8645 2.21597L44.166 1.26253L44.0294 1.2193L43.8861 1.2162L43.8645 2.21597ZM48.3498 4.60269L48.9623 3.81222L48.9623 3.81219L48.3498 4.60269ZM52.1779 8.00699L51.997 8.99048L51.9972 8.99052L52.1779 8.00699ZM57.7512 7.61441L57.7283 6.61467L57.7282 6.61467L57.7512 7.61441ZM61.5988 7.90933L61.7565 6.92184L61.7565 6.92184L61.5988 7.90933ZM76.3947 18.7062L75.5069 19.1664L75.5069 19.1664L76.3947 18.7062ZM77.9514 30.9777L78.9428 31.1085L78.9428 31.1084L77.9514 30.9777ZM77.0891 34.6828L76.1088 34.4853L75.9809 35.1202L76.508 35.4966L77.0891 34.6828ZM83.0617 45.4113L84.0514 45.2679V45.2679L83.0617 45.4113ZM80.299 60.6378L81.1166 61.2137L81.1166 61.2137L80.299 60.6378ZM67.1057 69.2267L66.8541 68.2589L66.4595 68.3614L66.2491 68.7106L67.1057 69.2267ZM64.8049 74.4064L63.9367 73.9101L63.9367 73.9101L64.8049 74.4064ZM58.0295 81.6974L58.5987 82.5196L58.5987 82.5196L58.0295 81.6974ZM33.1457 78.9787L33.9143 78.3388L33.9097 78.3334L33.1457 78.9787ZM31.9211 78.0636L31.9357 77.0637H31.9357L31.9211 78.0636ZM25.3811 78.4044L25.4208 77.4052L25.4084 77.4047L25.396 77.4046L25.3811 78.4044ZM5.95919 55.1378L4.97842 54.9427L4.97841 54.9427L5.95919 55.1378ZM6.69259 51.3595L7.69238 51.3388L7.68604 51.0328L7.50956 50.7828L6.69259 51.3595ZM4.43576 48.7101L3.67267 49.3564L3.67268 49.3564L4.43576 48.7101ZM1.06857 41.5812L0.0757158 41.4619L0.0558373 41.6272L0.0906311 41.7901L1.06857 41.5812ZM1.01486 38.6144L0.0148957 38.6267L0.0150775 38.6354L1.01486 38.6144ZM1.01583 33.6837L2.01576 33.6963L2.01577 33.695L1.01583 33.6837ZM1.18283 31.0744L0.187127 30.9817L0.178411 31.0754L0.187317 31.169L1.18283 31.0744ZM2.01681 28.4904L1.5729 27.5943L1.23437 27.762L1.0913 28.1117L2.01681 28.4904ZM2.89279 27.5294L3.57363 26.797L2.76498 26.0453L2.09674 26.9242L2.89279 27.5294ZM2.96212 27.5939L2.28128 28.3263L3.7558 29.697L3.95711 27.6939L2.96212 27.5939ZM8.36837 20.8712L7.71291 20.116L7.71285 20.1161L8.36837 20.8712ZM10.2258 19.7873L10.8635 20.5576L10.8635 20.5575L10.2258 19.7873ZM17.4592 16.8517L18.0973 17.6217L18.1053 17.615L18.1132 17.6082L17.4592 16.8517ZM18.5832 12.7189L17.6215 12.4449L17.5657 12.6406L17.5909 12.8425L18.5832 12.7189ZM24.3488 5.5773L23.6726 4.84064L23.6726 4.84066L24.3488 5.5773ZM55.9387 40.1466L56.7166 39.5183L56.2049 38.8847L55.4808 39.2576L55.9387 40.1466ZM55.5637 48.4962L56.559 48.3992L56.559 48.3991L55.5637 48.4962ZM55.5344 51.4425L54.5347 51.4666L54.5579 52.4291L55.5205 52.4424L55.5344 51.4425ZM55.6047 51.4435L55.5908 52.4434L56.537 52.4566L56.6023 51.5125L55.6047 51.4435ZM55.7561 50.1701L56.7561 50.1716L56.761 46.886L54.9265 49.6117L55.7561 50.1701ZM55.8098 57.7785L56.8097 57.7653L56.8097 57.7626L55.8098 57.7785ZM55.2277 64.7707L56.0312 65.3661L56.0314 65.3657L55.2277 64.7707ZM52.0442 66.7462L52.5342 67.618L52.5408 67.6142L52.0442 66.7462ZM44.8781 70.7746L44.3881 69.9029L44.3851 69.9046L44.8781 70.7746ZM39.6867 73.9826L40.213 74.8329L40.2131 74.8328L39.6867 73.9826ZM36.3244 76.3859L35.3511 76.1564L35.3013 76.3676L35.3436 76.5805L36.3244 76.3859ZM37.5598 77.6711L37.0036 78.5021L37.0037 78.5022L37.5598 77.6711ZM49.5393 80.7521L49.7769 81.7235V81.7235L49.5393 80.7521ZM60.6018 73.4953L61.4537 74.019L61.4537 74.019L60.6018 73.4953ZM63.2649 67.1916L62.3528 66.7814L62.3024 66.8935L62.2807 67.0144L63.2649 67.1916ZM63.886 64.8009L62.8878 64.8623L62.8914 64.9209L62.9019 64.9788L63.886 64.8009ZM63.8889 60.5675L64.8889 60.5711L64.8889 60.5683L63.8889 60.5675ZM63.8957 51.7726L64.8957 51.7734V51.7724L63.8957 51.7726ZM63.6672 44.4103L64.661 44.2994L64.6143 43.8811L64.2827 43.6222L63.6672 44.4103ZM62.7756 43.8078L62.143 44.5823L62.1919 44.6222L62.2455 44.6557L62.7756 43.8078ZM61.2844 42.9767L60.7974 43.8501L60.7974 43.8501L61.2844 42.9767ZM56.0617 40.299L55.2838 40.9273L55.4534 41.1373L55.7056 41.2334L56.0617 40.299ZM51.5979 53.2746L52.5795 53.084L52.3555 51.9296L51.2521 52.3363L51.5979 53.2746ZM50.2063 53.8986L50.6152 54.8113L50.6261 54.8062L50.2063 53.8986ZM45.9973 56.4894L46.5039 57.3516L46.504 57.3515L45.9973 56.4894ZM35.6223 62.5138L35.134 61.6411L35.134 61.6411L35.6223 62.5138ZM31.1545 65.256L31.5551 66.1723L31.5551 66.1722L31.1545 65.256ZM23.5861 61.8L23.1398 62.6948L23.1439 62.6969L23.5861 61.8ZM10.2326 54.3966L10.663 53.494L9.62039 52.9969L9.27766 54.0999L10.2326 54.3966ZM11.0315 65.4669L10.1406 65.9212L10.1406 65.9213L11.0315 65.4669ZM20.9934 73.7326L20.6966 74.6875H20.6966L20.9934 73.7326ZM33.26 72.7541L33.7384 73.6322L33.7384 73.6322L33.26 72.7541ZM36.4494 70.8918L35.9571 70.0213L35.9553 70.0224L36.4494 70.8918ZM44.5598 66.3048L45.0521 67.1753L45.0564 67.1728L44.5598 66.3048ZM50.9621 62.5382L50.3675 61.7343L50.3674 61.7343L50.9621 62.5382ZM51.6496 61.6681L52.6123 61.9387L52.6159 61.9259L52.6191 61.9131L51.6496 61.6681ZM52.9963 25.4132L53.0374 24.4141L52.6438 24.3979L52.3449 24.6545L52.9963 25.4132ZM46.4533 29.3742L45.8099 28.6087L45.3394 29.0042L45.4798 29.6026L46.4533 29.3742ZM46.5168 29.6427L45.5433 29.8712L45.6211 30.2027L45.885 30.4179L46.5168 29.6427ZM57.2668 35.9445L56.7684 36.8114L56.7685 36.8115L57.2668 35.9445ZM62.3781 38.9093L62.8916 38.0512L62.8916 38.0512L62.3781 38.9093ZM67.1486 41.9582L68.1485 41.9728L68.1542 41.5872L67.8994 41.2976L67.1486 41.9582ZM67.1272 53.6535L66.1272 53.6486V53.6486L67.1272 53.6535ZM67.3733 64.2433L66.3772 64.3315L66.3828 64.3958L66.3968 64.4588L67.3733 64.2433ZM67.4211 64.4601L66.4446 64.6756L66.5391 65.1036L66.9178 65.3242L67.4211 64.4601ZM71.2688 63.5421L71.379 62.5482L71.1779 62.5259L70.9839 62.5836L71.2688 63.5421ZM71.7033 63.5636L71.994 64.5205L71.9951 64.5201L71.7033 63.5636ZM75.6662 60.8195L76.4314 61.4633L76.7481 61.087L76.6433 60.6064L75.6662 60.8195ZM75.6145 60.5822L74.9142 59.8683L74.5197 60.2553L74.6374 60.7953L75.6145 60.5822ZM76.0969 60.4025L76.0892 61.4025L76.7943 61.4079L77.0362 60.7455L76.0969 60.4025ZM76.9221 59.3029L77.1145 60.2842L77.3185 60.2442L77.4897 60.1262L76.9221 59.3029ZM77.4162 58.1339L77.1385 57.1733L76.5995 57.3291L76.4516 57.8702L77.4162 58.1339ZM77.4973 58.1105L78.0548 57.2804L77.6676 57.0203L77.2195 57.1499L77.4973 58.1105ZM77.6281 58.1984L77.0706 59.0285L77.8112 59.5259L78.3895 58.8467L77.6281 58.1984ZM78.1389 55.9552L77.1487 55.8156L77.1371 55.8975L77.1392 55.9802L78.1389 55.9552ZM78.9895 52.7941L78.0976 52.3418L78.0346 52.466L78.008 52.6027L78.9895 52.7941ZM79.6311 51.923L80.2894 52.6757L80.4493 52.5359L80.5385 52.3432L79.6311 51.923ZM79.8772 50.0255L78.8772 50.0236L78.8771 50.0465L78.8781 50.0693L79.8772 50.0255ZM79.9035 48.3273L78.9061 48.255L78.9046 48.2767L78.9039 48.2985L79.9035 48.3273ZM79.9152 48.1613L80.9126 48.2334L80.9263 48.0453L80.8704 47.8651L79.9152 48.1613ZM78.7942 45.3195L77.805 45.4664L77.8613 45.8453L78.1563 46.0896L78.7942 45.3195ZM74.5852 37.6359L75.2653 36.9028L75.2652 36.9027L74.5852 37.6359ZM64.4709 31.1837L64.9825 30.3245L64.9824 30.3245L64.4709 31.1837ZM58.2102 27.505L58.7118 26.64L58.7089 26.6383L58.2102 27.505ZM16.3391 21.2531L17.0394 20.5393L16.7521 20.2574L16.3497 20.2531L16.3391 21.2531ZM15.8449 21.3966L15.9581 22.3902L16.2122 22.3613L16.4212 22.2139L15.8449 21.3966ZM14.966 21.59L15.2586 22.5462L15.2587 22.5462L14.966 21.59ZM4.68966 34.1759L5.6606 34.4153L5.67252 34.3669L5.67957 34.3176L4.68966 34.1759ZM4.11349 36.6007L5.09669 36.7833L5.10223 36.7534L5.10595 36.7233L4.11349 36.6007ZM4.41134 40.2179L3.57654 40.7685L3.97107 41.3667L4.66437 41.1854L4.41134 40.2179ZM4.47482 40.2013L4.72785 41.1688L5.55899 40.9514L5.46936 40.097L4.47482 40.2013ZM4.40744 39.548L5.40468 39.4738L5.32961 38.4653L4.32203 38.5517L4.40744 39.548ZM4.37326 39.5509L4.15043 38.5761L4.45866 40.5473L4.37326 39.5509ZM4.40744 39.5431L4.63026 40.518L5.46769 40.3266L5.40475 39.4699L4.40744 39.5431ZM4.40158 39.3273L5.15118 38.6654L3.67116 36.9892L3.4085 39.2098L4.40158 39.3273ZM4.56369 39.5109L3.81408 40.1728L4.11263 40.5109H4.56369V39.5109ZM4.56662 39.5109L5.44905 39.0405L5.16674 38.5109H4.56662V39.5109ZM4.56857 39.5168L3.68327 39.9818L3.74268 40.0949L3.82863 40.1894L4.56857 39.5168ZM4.5881 39.5382V40.5382H6.84865L5.32804 38.8656L4.5881 39.5382ZM4.57833 39.5382V38.5382H2.96898L3.68176 39.9811L4.57833 39.5382ZM5.06564 42.4523L4.33818 43.1385L5.11562 43.9627L5.83687 43.0889L5.06564 42.4523ZM5.22091 42.0265L6.15047 41.6578L4.8858 38.4692L4.23886 41.8379L5.22091 42.0265ZM5.17013 42.7648L4.21355 42.4733L4.10427 42.832L4.25771 43.1741L5.17013 42.7648ZM12.8381 51.4357L13.2351 50.5179L13.2351 50.5179L12.8381 51.4357ZM13.4651 52.0568L12.7633 52.7692L12.764 52.7699L13.4651 52.0568ZM14.5656 52.1623L14.669 51.1676L14.6687 51.1676L14.5656 52.1623ZM15.1018 52.9611L14.4219 53.6944L14.4224 53.6949L15.1018 52.9611ZM16.2766 53.214L17.039 52.5669L16.9854 52.5038L16.9222 52.4504L16.2766 53.214ZM18.0393 54.1798L18.8949 53.6623L18.592 53.1615L18.0071 53.1804L18.0393 54.1798ZM19.719 55.4123L20.1336 54.5023L20.1316 54.5014L19.719 55.4123ZM20.5754 56.2404L20.8304 55.2735L20.8006 55.2656L20.7703 55.2596L20.5754 56.2404ZM22.3059 57.2189L21.4879 57.7941L21.7646 58.1877L22.2449 58.217L22.3059 57.2189ZM23.2326 57.2648L24.2001 57.0116L24.0186 56.3183L23.3038 56.2673L23.2326 57.2648ZM25.4602 58.6408L26.4436 58.4592L26.3978 58.2114L26.2401 58.0149L25.4602 58.6408ZM25.6887 59.1281L24.9874 59.8409L25.1867 60.037L25.4587 60.1013L25.6887 59.1281ZM27.3928 60.0421L28.2311 59.4969L28.231 59.4968L27.3928 60.0421ZM28.7434 60.5119L29.738 60.408L29.6972 60.0181L29.4024 59.7597L28.7434 60.5119ZM28.7776 60.839L27.783 60.9429L27.8394 61.4832L28.3233 61.7299L28.7776 60.839ZM30.1252 61.1593L30.415 62.1164L30.4191 62.1152L30.1252 61.1593ZM30.2785 61.1066L29.9008 60.1807L29.8981 60.1818L30.2785 61.1066ZM31.6438 60.7726L32.1475 61.6364L32.1486 61.6358L31.6438 60.7726ZM34.4875 59.006L35.0048 59.8618L35.0049 59.8618L34.4875 59.006ZM37.3127 57.3429L37.7962 58.2183L37.7973 58.2177L37.3127 57.3429ZM37.6789 56.925L38.5876 57.3425L38.5881 57.3414L37.6789 56.925ZM37.6545 56.257L38.5686 55.8515L38.5686 55.8515L37.6545 56.257ZM36.4807 55.0724L35.494 54.9097L35.3988 55.4867L35.855 55.8525L36.4807 55.0724ZM36.5051 54.9269L37.4917 55.09L37.6044 54.4082L37.0065 54.0617L36.5051 54.9269ZM34.4465 54.0236L34.8216 53.0966L34.8216 53.0966L34.4465 54.0236ZM33.8615 53.9386L33.3751 54.8124L33.6097 54.943L33.8782 54.9385L33.8615 53.9386ZM22.4553 47.589L21.9607 48.4582L21.9689 48.4628L22.4553 47.589ZM17.0149 44.3332L16.0891 44.7114L16.1867 44.9502L16.3876 45.112L17.0149 44.3332ZM16.7951 38.7091L17.7951 38.7051V38.7051L16.7951 38.7091ZM16.5139 21.425L17.5108 21.346L17.4813 20.9738L17.2151 20.712L16.5139 21.425ZM42.2131 32.5636L42.4276 31.5869L42.4272 31.5868L42.2131 32.5636ZM41.1233 32.6798L40.771 31.7439L40.7708 31.744L41.1233 32.6798ZM38.7424 33.9572L38.2601 33.0812L38.2601 33.0812L38.7424 33.9572ZM33.0422 37.2345L32.4975 36.3959L32.4754 36.4102L32.4541 36.4257L33.0422 37.2345ZM32.2238 41.9044L31.2239 41.914L31.2239 41.914L32.2238 41.9044ZM32.3078 46.7482L33.2923 46.9236L33.3126 46.8098L33.3064 46.6944L32.3078 46.7482ZM32.8557 48.7209L33.3033 47.8267L33.165 47.7574L33.0122 47.7332L32.8557 48.7209ZM34.2297 49.5802L34.7318 48.7154L34.7317 48.7154L34.2297 49.5802ZM42.3811 53.5353L42.467 54.5316L42.4672 54.5316L42.3811 53.5353ZM43.2492 53.2316L43.7093 54.1195L43.7094 54.1194L43.2492 53.2316ZM45.5793 51.8175L45.0973 50.9414L45.0973 50.9414L45.5793 51.8175ZM50.6447 48.9865L51.1952 49.8214L51.1952 49.8213L50.6447 48.9865ZM51.3508 48.3586L52.1118 49.0073L52.1663 48.9434L52.2093 48.8713L51.3508 48.3586ZM51.761 41.672L52.7609 41.6775V41.6773L51.761 41.672ZM51.2981 37.508L52.2814 37.3264L52.2228 37.0088L51.9894 36.7855L51.2981 37.508ZM51.1067 37.3253L51.7974 36.6023L51.7726 36.5786L51.7462 36.5566L51.1067 37.3253ZM47.5461 9.28628L48.2137 8.54173L48.213 8.54117L47.5461 9.28628ZM32.2854 5.95816L32.6032 6.90629L32.6203 6.90056L32.6372 6.89422L32.2854 5.95816ZM30.633 6.62515L30.9566 7.57136L30.9566 7.57134L30.633 6.62515ZM20.4699 19.9884L21.3088 20.5328L21.4334 20.3408L21.4621 20.1137L20.4699 19.9884ZM20.1916 22.2843L21.1866 22.3844L21.1994 22.2574L21.1798 22.1314L20.1916 22.2843ZM20.1291 25.8097L19.1291 25.8089L19.1291 25.8096L20.1291 25.8097ZM20.1281 31.7599L19.1281 31.7598L19.1281 31.7606L20.1281 31.7599ZM20.132 37.1447L19.132 37.1454V37.1459L20.132 37.1447ZM20.1838 40.2658L21.1812 40.3381L21.1876 40.2494L21.1783 40.1611L20.1838 40.2658ZM20.4182 41.8175L19.546 42.3067L19.6547 42.5006L19.8355 42.6302L20.4182 41.8175ZM20.9445 42.1193L21.3763 41.2173L21.3541 41.2067L21.3314 41.1971L20.9445 42.1193ZM27.5705 45.675L28.0447 44.7945L28.0326 44.788L28.0203 44.7818L27.5705 45.675ZM28.0256 45.9201L27.5514 46.8005L27.6764 46.8678L27.8151 46.8977L28.0256 45.9201ZM28.6535 45.7902L29.3537 46.5042L29.6016 46.261L29.6455 45.9165L28.6535 45.7902ZM28.7736 42.6222L27.7737 42.6083V42.6083L28.7736 42.6222ZM28.6438 34.4796L29.6436 34.4603L29.6285 33.6796L28.8674 33.505L28.6438 34.4796ZM28.385 34.6935L27.4224 34.9645L27.7672 36.1892L28.8757 35.5648L28.385 34.6935ZM28.2463 31.3224L27.2471 31.3635L27.2471 31.3635L28.2463 31.3224ZM28.2219 22.3478L27.2361 22.1799L27.2165 22.2949L27.2239 22.4113L28.2219 22.3478ZM28.9367 20.8429L28.6526 19.8841L28.3222 19.9821L28.1222 20.2627L28.9367 20.8429ZM33.6135 18.2814L34.1144 19.1469L34.1205 19.1433L33.6135 18.2814ZM44.4113 11.9298L44.9184 12.7918L44.9235 12.7887L44.4113 11.9298ZM47.6848 9.60855L48.6635 9.81359L48.7025 9.62775L48.6706 9.44057L47.6848 9.60855ZM61.4367 11.9191L61.6425 10.9405L61.633 10.9385L61.4367 11.9191ZM52.9084 12.3859L53.2049 13.341L53.2106 13.3391L52.9084 12.3859ZM46.8508 15.4943L47.3463 16.3629L47.3463 16.3629L46.8508 15.4943ZM32.717 23.6398L32.1721 22.8013L31.9481 22.9469L31.8265 23.1848L32.717 23.6398ZM32.2727 32.7072L31.2731 32.7349L31.3178 34.3507L32.7437 33.5893L32.2727 32.7072ZM33.0324 32.3742L33.3832 33.3106L33.3833 33.3106L33.0324 32.3742ZM37.8772 29.5607L37.3787 28.6937L37.3728 28.6972L37.8772 29.5607ZM48.1994 23.6261L48.6979 24.4931L48.7036 24.4897L48.1994 23.6261ZM55.9748 21.4474L55.4421 22.2937L55.4421 22.2937L55.9748 21.4474ZM68.8733 28.9484L69.8694 29.0364L69.9257 28.3994L69.371 28.0811L68.8733 28.9484ZM69.0188 29.6212L68.4819 30.4649L68.4827 30.4654L69.0188 29.6212ZM72.5217 31.5226L72.2116 32.4733L72.4199 32.5412L72.6375 32.5159L72.5217 31.5226ZM72.9924 31.3468L73.3869 30.4279L72.9135 30.2247L72.4732 30.4922L72.9924 31.3468ZM74.2356 28.4728L75.2292 28.5857V28.5857L74.2356 28.4728ZM67.1828 14.381L66.6062 15.198L66.6062 15.1981L67.1828 14.381ZM38.5149 1.00992L37.8649 1.76989C38.3375 2.17405 39.0237 2.36246 39.5112 2.46792C40.0489 2.58422 40.6043 2.64822 40.9541 2.69027L41.0735 1.69742L41.1928 0.704568C40.8241 0.660232 40.3641 0.606144 39.934 0.513125C39.7207 0.466972 39.5364 0.415636 39.39 0.36028C39.3179 0.333003 39.2628 0.307625 39.2224 0.285799C39.2026 0.275104 39.1882 0.266228 39.1782 0.259605C39.1683 0.252953 39.1643 0.249518 39.1648 0.249944L38.5149 1.00992ZM41.0735 1.69742L41.0133 0.699229C40.9582 0.702552 40.9112 0.703099 40.8456 0.703891C40.7903 0.704559 40.6898 0.705285 40.5849 0.716143C40.3133 0.74425 40.0605 0.83241 39.8028 1.01051L40.3713 1.83316L40.9398 2.65581C40.9439 2.65304 40.9229 2.66791 40.8819 2.68306C40.8389 2.69896 40.8035 2.7042 40.7908 2.70552C40.7871 2.7059 40.7898 2.70546 40.8038 2.70497C40.8189 2.70444 40.8376 2.70413 40.8698 2.70375C40.9295 2.70302 41.0232 2.70226 41.1336 2.6956L41.0735 1.69742ZM40.3713 1.83316L39.5777 2.4416C39.7931 2.72256 40.0887 2.84857 40.2355 2.90396C40.4159 2.97197 40.6098 3.0173 40.787 3.04984C41.1447 3.11553 41.5646 3.15197 41.9584 3.17387C42.7367 3.21714 43.596 3.21041 43.8429 3.21574L43.8645 2.21597L43.8861 1.2162C43.5375 1.20868 42.8093 1.21809 42.0694 1.17695C41.7042 1.15664 41.3824 1.12574 41.1483 1.08274C41.0296 1.06094 40.9651 1.04159 40.9412 1.03257C40.8837 1.01092 41.0291 1.04754 41.1649 1.22472L40.3713 1.83316ZM43.8645 2.21597L43.5629 3.16941C44.9077 3.59479 46.6144 4.52317 47.7374 5.39319L48.3498 4.60269L48.9623 3.81219C47.6733 2.81349 45.759 1.76639 44.166 1.26253L43.8645 2.21597ZM48.3498 4.60269L47.7373 5.39316C47.894 5.51456 48.1431 5.75364 48.4822 6.09884C48.7882 6.41028 49.1972 6.83902 49.5584 7.20338C49.9332 7.58145 50.3313 7.96757 50.7021 8.27411C50.8876 8.4275 51.0832 8.57519 51.2791 8.69537C51.4617 8.80739 51.7117 8.93799 51.997 8.99048L52.1779 8.00699L52.3589 7.0235C52.4288 7.03636 52.425 7.05202 52.3249 6.99059C52.2381 6.93733 52.122 6.85305 51.9765 6.73276C51.6853 6.49196 51.3441 6.16389 50.9788 5.79536C50.5999 5.41312 50.2681 5.06282 49.9089 4.69724C49.5829 4.3654 49.2427 4.02944 48.9623 3.81222L48.3498 4.60269ZM52.1779 8.00699L51.9972 8.99052C52.3958 9.06377 52.8955 9.05901 53.3687 9.03371C53.8631 9.00728 54.4179 8.95232 54.9628 8.89223C56.0957 8.76731 57.1354 8.62883 57.7742 8.61414L57.7512 7.61441L57.7282 6.61467C56.9739 6.63202 55.775 6.79055 54.7436 6.90428C54.2064 6.96351 53.6976 7.01328 53.2619 7.03656C52.8051 7.06099 52.5082 7.05093 52.3587 7.02346L52.1779 8.00699ZM57.7512 7.61441L57.7741 8.61415C59.4177 8.57645 59.8015 8.63503 61.4412 8.89682L61.5988 7.90933L61.7565 6.92184C60.0445 6.6485 59.5325 6.57329 57.7283 6.61467L57.7512 7.61441ZM61.5988 7.90933L61.4412 8.89682C67.6271 9.88456 72.6154 13.5873 75.5069 19.1664L76.3947 18.7062L77.2826 18.2461C74.1092 12.1232 68.5903 8.01301 61.7565 6.92184L61.5988 7.90933ZM76.3947 18.7062L75.5069 19.1664C77.3575 22.7369 77.5043 26.7191 76.96 30.8469L77.9514 30.9777L78.9428 31.1084C79.5115 26.7961 79.4033 22.3376 77.2826 18.246L76.3947 18.7062ZM77.9514 30.9777L76.96 30.8469C76.8992 31.3077 76.7568 31.8928 76.5857 32.5508C76.4218 33.1808 76.2303 33.8818 76.1088 34.4853L77.0891 34.6828L78.0694 34.8802C78.1766 34.348 78.3462 33.7274 78.5213 33.0543C78.6891 32.4091 78.8635 31.7095 78.9428 31.1085L77.9514 30.9777ZM77.0891 34.6828L76.508 35.4966C77.7461 36.3806 79.0278 38.0587 80.0738 40.0051C81.1134 41.9395 81.8472 44.0024 82.0721 45.5547L83.0617 45.4113L84.0514 45.2679C83.7836 43.42 82.9497 41.1316 81.8355 39.0583C80.7277 36.997 79.2694 35.0109 77.6702 33.8689L77.0891 34.6828ZM83.0617 45.4113L82.0721 45.5547C82.7838 50.4675 82.2846 56.0819 79.4815 60.062L80.299 60.6378L81.1166 61.2137C84.3363 56.6421 84.7989 50.4278 84.0514 45.2679L83.0617 45.4113ZM80.299 60.6378L79.4815 60.062C77.6413 62.6748 75.9644 64.3169 74.0486 65.5035C72.1187 66.6988 69.8851 67.4711 66.8541 68.2589L67.1057 69.2267L67.3572 70.1946C70.4429 69.3925 72.9114 68.5604 75.1017 67.2038C77.3062 65.8384 79.1677 63.9809 81.1166 61.2137L80.299 60.6378ZM67.1057 69.2267L66.2491 68.7106C65.727 69.5773 65.3565 70.5472 65.0206 71.4295C64.673 72.3426 64.359 73.1714 63.9367 73.9101L64.8049 74.4064L65.6731 74.9027C66.1873 74.0031 66.5553 73.0196 66.8897 72.1411C67.2359 71.2318 67.5476 70.431 67.9622 69.7428L67.1057 69.2267ZM64.8049 74.4064L63.9367 73.9101C62.6165 76.2199 59.651 79.3586 57.4603 80.8752L58.0295 81.6974L58.5987 82.5196C61.0136 80.8478 64.1923 77.4931 65.6731 74.9027L64.8049 74.4064ZM58.0295 81.6974L57.4603 80.8752C50.3918 85.7684 39.4632 85.004 33.9142 78.3389L33.1457 78.9787L32.3772 79.6185C38.6808 87.1902 50.8019 87.9169 58.5987 82.5196L58.0295 81.6974ZM33.1457 78.9787L33.9097 78.3334C33.7997 78.2032 33.4999 77.9271 33.233 77.7079C33.089 77.5897 32.9196 77.4587 32.7533 77.3517C32.6708 77.2986 32.5701 77.239 32.4605 77.1891C32.373 77.1493 32.1783 77.0673 31.9357 77.0637L31.9211 78.0636L31.9065 79.0635C31.8068 79.0621 31.7336 79.0437 31.6996 79.0338C31.6623 79.023 31.639 79.0127 31.6328 79.0098C31.6219 79.0049 31.6332 79.0092 31.6707 79.0333C31.7444 79.0808 31.8466 79.1573 31.9636 79.2534C32.0769 79.3465 32.1874 79.4441 32.274 79.524C32.3172 79.5639 32.3519 79.597 32.3761 79.6208C32.4096 79.6537 32.4032 79.6493 32.3818 79.624L33.1457 78.9787ZM31.9211 78.0636L31.9357 77.0637C30.8412 77.0478 29.6739 77.1604 28.5783 77.2581C27.4568 77.3582 26.3994 77.4442 25.4208 77.4052L25.3811 78.4044L25.3413 79.4037C26.4678 79.4485 27.6493 79.349 28.7561 79.2502C29.8886 79.1491 30.9388 79.0494 31.9065 79.0635L31.9211 78.0636ZM25.3811 78.4044L25.396 77.4046C13.8062 77.2315 4.65197 66.8339 6.93997 55.333L5.95919 55.1378L4.97841 54.9427C2.42618 67.7719 12.6347 79.2142 25.3661 79.4043L25.3811 78.4044ZM5.95919 55.1378L6.93997 55.333C7.05365 54.7617 7.22056 54.2107 7.39527 53.4914C7.5561 52.8292 7.70765 52.0756 7.69238 51.3388L6.69259 51.3595L5.69281 51.3802C5.70243 51.8447 5.60501 52.3885 5.45178 53.0193C5.31244 53.593 5.10021 54.3306 4.97842 54.9427L5.95919 55.1378ZM6.69259 51.3595L7.50956 50.7828C6.8729 49.8809 5.82187 48.7994 5.19883 48.0638L4.43576 48.7101L3.67268 49.3564C4.46254 50.289 5.29724 51.1168 5.87563 51.9362L6.69259 51.3595ZM4.43576 48.7101L5.19885 48.0638C4.56644 47.3171 3.8823 46.1558 3.29416 44.8898C2.70824 43.6285 2.25338 42.3407 2.04651 41.3723L1.06857 41.5812L0.0906311 41.7901C0.337995 42.9481 0.853053 44.3821 1.48033 45.7324C2.1054 47.0779 2.87773 48.4178 3.67267 49.3564L4.43576 48.7101ZM1.06857 41.5812L2.06142 41.7006C2.12924 41.1363 2.11736 40.5752 2.09137 40.0614C2.06373 39.515 2.02474 39.0747 2.01464 38.5934L1.01486 38.6144L0.0150775 38.6354C0.025844 39.1482 0.0711936 39.7131 0.0939266 40.1625C0.118313 40.6445 0.122852 41.0697 0.0757158 41.4619L1.06857 41.5812ZM1.01486 38.6144L2.01478 38.6021C1.99462 36.967 1.99521 35.3317 2.01575 33.6963L1.01583 33.6837L0.0159127 33.6712C-0.00483239 35.3228 -0.00543427 36.9748 0.0149332 38.6267L1.01486 38.6144ZM1.01583 33.6837L2.01577 33.695C2.01993 33.3259 2.07081 32.9233 2.12342 32.4409C2.17152 31.9998 2.22452 31.4654 2.17833 30.9797L1.18283 31.0744L0.187317 31.169C0.211365 31.4219 0.185736 31.7607 0.135212 32.224C0.0892061 32.6459 0.0214674 33.1788 0.0158974 33.6725L1.01583 33.6837ZM1.18283 31.0744L2.17852 31.167C2.19281 31.0135 2.29982 30.6215 2.47859 30.1017C2.64365 29.6218 2.83142 29.1401 2.94232 28.8691L2.01681 28.4904L1.0913 28.1117C0.969541 28.4092 0.767505 28.9274 0.587326 29.4512C0.420864 29.9352 0.227209 30.551 0.187127 30.9817L1.18283 31.0744ZM2.01681 28.4904L2.46072 29.3865C2.82378 29.2066 3.10374 29.0234 3.33089 28.6904C3.39498 28.5965 3.48067 28.4449 3.50255 28.4084C3.54449 28.3385 3.59945 28.2522 3.68883 28.1347L2.89279 27.5294L2.09674 26.9242C1.95565 27.1098 1.86018 27.2584 1.78752 27.3795C1.7557 27.4325 1.72245 27.4903 1.70699 27.5167C1.68685 27.5511 1.68032 27.561 1.67875 27.5633C1.67874 27.5633 1.67931 27.5625 1.68043 27.5609C1.68155 27.5594 1.68318 27.5572 1.68529 27.5545C1.68967 27.549 1.6953 27.5423 1.70202 27.5351C1.7165 27.5195 1.7283 27.5099 1.73242 27.5067C1.7333 27.506 1.69908 27.5318 1.5729 27.5943L2.01681 28.4904ZM2.89279 27.5294L2.21194 28.2619L2.28128 28.3263L2.96212 27.5939L3.64297 26.8615L3.57363 26.797L2.89279 27.5294ZM2.96212 27.5939L3.95711 27.6939C3.95705 27.6945 3.95783 27.6867 3.96182 27.6694C3.96577 27.6523 3.97226 27.6285 3.98257 27.5976C4.00353 27.5347 4.03656 27.4534 4.08542 27.3529C4.18395 27.1501 4.32979 26.9036 4.52143 26.6194C4.90449 26.0513 5.42755 25.3956 6.00133 24.7339C7.1515 23.4074 8.43185 22.1403 9.02389 21.6264L8.36837 20.8712L7.71285 20.1161C7.03429 20.7051 5.68754 22.0429 4.49025 23.4237C3.89029 24.1156 3.30954 24.8393 2.8632 25.5012C2.64015 25.832 2.4399 26.1632 2.28651 26.4789C2.13962 26.7812 2.0033 27.1341 1.96713 27.4939L2.96212 27.5939ZM8.36837 20.8712L9.02384 21.6265C8.98302 21.6619 9.00288 21.6406 9.18902 21.5363C9.33699 21.4533 9.51961 21.3558 9.7234 21.2461C9.92073 21.1398 10.135 21.0237 10.3234 20.9146C10.4942 20.8157 10.7068 20.6873 10.8635 20.5576L10.2258 19.7873L9.58812 19.017C9.59045 19.015 9.57102 19.0306 9.51605 19.066C9.46537 19.0987 9.4003 19.138 9.32136 19.1837C9.16277 19.2755 8.97344 19.3784 8.77519 19.4852C8.5834 19.5884 8.3784 19.6979 8.21122 19.7916C8.08222 19.8639 7.85941 19.9889 7.71291 20.116L8.36837 20.8712ZM10.2258 19.7873L10.8635 20.5575C11.7493 19.8241 12.805 19.5595 14.1051 19.2621C15.3364 18.9804 16.842 18.6619 18.0973 17.6217L17.4592 16.8517L16.8211 16.0817C15.993 16.768 14.9763 17.0111 13.659 17.3125C12.4104 17.5981 10.8911 17.9381 9.58805 19.017L10.2258 19.7873ZM17.4592 16.8517L18.1132 17.6082C18.2671 17.4751 18.3561 17.3207 18.3889 17.2629C18.4355 17.1807 18.4756 17.0948 18.5089 17.0177C18.5763 16.8617 18.6444 16.6747 18.7097 16.4799C18.8416 16.0865 18.9843 15.5948 19.1135 15.1081C19.2431 14.6202 19.3632 14.1216 19.4485 13.7118C19.491 13.5079 19.527 13.3158 19.5509 13.153C19.5681 13.0364 19.6015 12.8038 19.5756 12.5953L18.5832 12.7189L17.5909 12.8425C17.578 12.7393 17.595 12.7072 17.5723 12.8617C17.5563 12.9701 17.5289 13.1198 17.4905 13.3041C17.4142 13.6704 17.3032 14.1328 17.1805 14.5949C17.0575 15.0581 16.927 15.5054 16.8135 15.844C16.7561 16.0153 16.7083 16.1426 16.6729 16.2246C16.6548 16.2665 16.6467 16.2806 16.6491 16.2764C16.6506 16.2738 16.6602 16.2568 16.6785 16.2317C16.6936 16.2108 16.7351 16.1558 16.8052 16.0952L17.4592 16.8517ZM18.5832 12.7189L19.545 12.9929C19.8223 12.0194 20.6763 10.7923 21.796 9.52715C22.8886 8.29267 24.1244 7.14083 25.0251 6.31394L24.3488 5.5773L23.6726 4.84066C22.769 5.67022 21.4657 6.88268 20.2984 8.20165C19.1582 9.48991 18.0316 11.0054 17.6215 12.4449L18.5832 12.7189ZM24.3488 5.5773L25.0251 6.31396C28.5467 3.08111 33.6426 1.87848 38.4878 2.00955L38.5149 1.00992L38.5419 0.0102826C33.3941 -0.128967 27.7114 1.13288 23.6726 4.84064L24.3488 5.5773ZM55.9387 40.1466L55.4808 39.2576C54.9881 39.5114 54.7776 40.0056 54.6813 40.2802C54.565 40.6121 54.4917 41.0009 54.4422 41.3916C54.3421 42.1808 54.3176 43.1581 54.3279 44.1144C54.3487 46.0367 54.5128 48.0236 54.5684 48.5934L55.5637 48.4962L56.559 48.3991C56.5066 47.8621 56.3477 45.9371 56.3278 44.0928C56.3178 43.1657 56.3435 42.2961 56.4263 41.6433C56.4682 41.313 56.5195 41.0822 56.5687 40.9418C56.638 40.7441 56.634 40.9133 56.3966 41.0356L55.9387 40.1466ZM55.5637 48.4962L54.5684 48.5932C54.6047 48.9655 54.5956 49.4135 54.5745 49.9267C54.5547 50.4114 54.5228 50.9729 54.5347 51.4666L55.5344 51.4425L56.5341 51.4185C56.5243 51.0097 56.5508 50.547 56.5729 50.0087C56.5938 49.4988 56.6102 48.9249 56.559 48.3992L55.5637 48.4962ZM55.5344 51.4425L55.5205 52.4424L55.5908 52.4434L55.6047 51.4435L55.6186 50.4436L55.5483 50.4426L55.5344 51.4425ZM55.6047 51.4435L56.6023 51.5125C56.6184 51.2801 56.635 51.0124 56.6573 50.7819C56.6685 50.6663 56.6793 50.5806 56.6887 50.5261C56.6935 50.4982 56.6951 50.4951 56.6915 50.5083C56.6895 50.5154 56.6834 50.5368 56.6714 50.567C56.6612 50.5927 56.6353 50.6547 56.5857 50.7284L55.7561 50.1701L54.9265 49.6117C54.8222 49.7666 54.7788 49.9212 54.7645 49.9729C54.7432 50.0495 54.7283 50.125 54.7176 50.1875C54.6959 50.3138 54.6795 50.4562 54.6667 50.589C54.6409 50.8553 54.6216 51.1651 54.6071 51.3745L55.6047 51.4435ZM55.7561 50.1701L54.7561 50.1686C54.7523 52.7104 54.7697 55.2524 54.8099 57.7943L55.8098 57.7785L56.8097 57.7626C56.7696 55.2327 56.7523 52.7023 56.7561 50.1716L55.7561 50.1701ZM55.8098 57.7785L54.8099 57.7917C54.8201 58.5652 54.8965 59.9301 54.8607 61.3295C54.843 62.0191 54.7981 62.6716 54.7107 63.2088C54.6166 63.7867 54.4954 64.0793 54.4241 64.1756L55.2277 64.7707L56.0314 65.3657C56.4062 64.8596 56.5831 64.1545 56.6847 63.5301C56.7929 62.8651 56.8413 62.111 56.86 61.3806C56.8969 59.9399 56.8182 58.4112 56.8097 57.7653L55.8098 57.7785ZM55.2277 64.7707L54.4243 64.1753C54.4421 64.1512 54.3742 64.2302 54.1058 64.4128C53.8749 64.5699 53.5797 64.7487 53.2579 64.9336C52.9384 65.1171 52.6068 65.2986 52.3062 65.462C52.0133 65.6211 51.7352 65.7709 51.5475 65.8783L52.0442 66.7462L52.5408 67.6142C52.7035 67.5211 52.951 67.3878 53.2612 67.2193C53.5637 67.0548 53.9129 66.8638 54.2541 66.6678C54.593 66.4731 54.9385 66.2653 55.2308 66.0664C55.4855 65.8931 55.8231 65.6469 56.0312 65.3661L55.2277 64.7707ZM52.0442 66.7462L51.5541 65.8745L44.3881 69.9029L44.8781 70.7746L45.3682 71.6463L52.5342 67.618L52.0442 66.7462ZM44.8781 70.7746L44.3851 69.9046C42.6276 70.9006 40.8256 72.1014 39.1604 73.1323L39.6867 73.9826L40.2131 74.8328C41.9633 73.7493 43.6546 72.6174 45.3712 71.6446L44.8781 70.7746ZM39.6867 73.9826L39.1604 73.1323C38.9814 73.2431 38.7136 73.3856 38.3596 73.5749C38.0219 73.7555 37.6274 73.9676 37.2495 74.1943C36.8763 74.4182 36.4841 74.677 36.1603 74.9595C35.8684 75.2141 35.4785 75.6165 35.3511 76.1564L36.3244 76.3859L37.2977 76.6154C37.2742 76.7152 37.25 76.6629 37.4749 76.4667C37.6678 76.2985 37.9435 76.1103 38.2785 75.9093C38.6087 75.7112 38.9627 75.5204 39.3028 75.3386C39.6267 75.1653 39.9661 74.9857 40.213 74.8329L39.6867 73.9826ZM36.3244 76.3859L35.3436 76.5805C35.4628 77.1814 35.8658 77.6131 36.1533 77.8709C36.4583 78.1445 36.8063 78.3701 37.0036 78.5021L37.5598 77.6711L38.1159 76.84C37.881 76.6827 37.666 76.5411 37.4887 76.3821C37.2939 76.2073 37.2953 76.1411 37.3053 76.1912L36.3244 76.3859ZM37.5598 77.6711L37.0037 78.5022C40.6616 80.9494 44.961 82.9017 49.7769 81.7235L49.5393 80.7521L49.3016 79.7808C45.3218 80.7545 41.6345 79.194 38.1158 76.8399L37.5598 77.6711ZM49.5393 80.7521L49.7769 81.7235C54.2175 80.637 58.8744 78.2143 61.4537 74.019L60.6018 73.4953L59.7499 72.9715C57.5487 76.552 53.4585 78.7637 49.3016 79.7808L49.5393 80.7521ZM60.6018 73.4953L61.4537 74.019C62.5952 72.1622 63.844 69.6196 64.249 67.3687L63.2649 67.1916L62.2807 67.0144C61.9406 68.9043 60.8409 71.1968 59.7499 72.9715L60.6018 73.4953ZM63.2649 67.1916L64.1769 67.6017C64.2967 67.3354 64.4857 66.7857 64.6324 66.2722C64.7076 66.0088 64.7791 65.7294 64.8274 65.4777C64.8653 65.2804 64.9258 64.932 64.87 64.6231L63.886 64.8009L62.9019 64.9788C62.8873 64.8982 62.8964 64.8626 62.8917 64.9153C62.8883 64.9534 62.8798 65.0146 62.8633 65.1008C62.8303 65.2725 62.7759 65.4898 62.7093 65.7229C62.5724 66.2024 62.4142 66.6449 62.3528 66.7814L63.2649 67.1916ZM63.886 64.8009L64.8841 64.7396C64.8148 63.6122 64.8843 61.8524 64.8889 60.5711L63.8889 60.5675L62.8889 60.564C62.8848 61.7103 62.8134 63.6514 62.8878 64.8623L63.886 64.8009ZM63.8889 60.5675L64.8889 60.5683L64.8957 51.7734L63.8957 51.7726L62.8957 51.7718L62.8889 60.5668L63.8889 60.5675ZM63.8957 51.7726L64.8957 51.7724C64.8952 49.2294 64.9551 46.9333 64.661 44.2994L63.6672 44.4103L62.6734 44.5212C62.9518 47.0154 62.8952 49.168 62.8957 51.7728L63.8957 51.7726ZM63.6672 44.4103L64.2827 43.6222C63.93 43.3467 63.6267 43.1605 63.3057 42.9598L62.7756 43.8078L62.2455 44.6557C62.5805 44.8652 62.7947 44.9978 63.0517 45.1985L63.6672 44.4103ZM62.7756 43.8078L63.4082 43.0333C63.2845 42.9323 63.1173 42.8331 63.0003 42.7655C62.8619 42.6855 62.7012 42.5979 62.545 42.5143C62.2105 42.3353 61.9262 42.1896 61.7713 42.1033L61.2844 42.9767L60.7974 43.8501C60.9666 43.9445 61.3235 44.129 61.6014 44.2777C61.7514 44.358 61.8897 44.4336 61.9998 44.4973C62.1314 44.5732 62.1623 44.598 62.143 44.5823L62.7756 43.8078ZM61.2844 42.9767L61.7714 42.1033C60.0729 41.1562 58.3855 40.1143 56.4178 39.3645L56.0617 40.299L55.7056 41.2334C57.497 41.916 58.9984 42.847 60.7974 43.8501L61.2844 42.9767ZM56.0617 40.299L56.8397 39.6706L56.7166 39.5183L55.9387 40.1466L55.1607 40.775L55.2838 40.9273L56.0617 40.299ZM51.5979 53.2746L51.2521 52.3363C50.7787 52.5107 50.1577 52.8192 49.7864 52.991L50.2063 53.8986L50.6261 54.8062C51.0953 54.5891 51.5706 54.3503 51.9436 54.2129L51.5979 53.2746ZM50.2063 53.8986L49.7974 52.986C49.0123 53.3377 48.243 53.8249 47.5332 54.2963C46.7985 54.7841 46.1424 55.2442 45.4906 55.6273L45.9973 56.4894L46.504 57.3515C47.2188 56.9314 47.9634 56.4114 48.6396 55.9623C49.3407 55.4967 49.9925 55.0901 50.6151 54.8112L50.2063 53.8986ZM45.9973 56.4894L45.4906 55.6273C42.0226 57.6653 38.634 59.6831 35.134 61.6411L35.6223 62.5138L36.1105 63.3865C39.6345 61.4151 43.0496 59.3816 46.5039 57.3516L45.9973 56.4894ZM35.6223 62.5138L35.134 61.6411C34.4754 62.0097 33.6159 62.5942 32.8346 63.1079C32.0099 63.6501 31.2736 64.1125 30.7539 64.3398L31.1545 65.256L31.5551 66.1722C32.2585 65.8647 33.1386 65.3015 33.9333 64.7791C34.7713 64.2281 35.5342 63.709 36.1106 63.3865L35.6223 62.5138ZM31.1545 65.256L30.7539 64.3398C30.6155 64.4003 30.3067 64.4308 29.7243 64.2396C29.1678 64.0568 28.5206 63.7245 27.825 63.3072C27.134 62.8928 26.4463 62.4262 25.7946 61.9903C25.1685 61.5715 24.5372 61.1539 24.0283 60.903L23.5861 61.8L23.1439 62.6969C23.5104 62.8775 24.024 63.2121 24.6827 63.6527C25.3158 64.0762 26.0526 64.5763 26.7962 65.0223C27.5351 65.4656 28.3324 65.8876 29.1005 66.1398C29.8427 66.3834 30.7386 66.5293 31.5551 66.1723L31.1545 65.256ZM23.5861 61.8L24.0325 60.9051C21.8037 59.7935 19.6366 58.5054 17.4252 57.2033C15.2258 55.9083 12.9854 54.6013 10.663 53.494L10.2326 54.3966L9.80225 55.2993C12.0351 56.3639 14.2051 57.6283 16.4105 58.9267C18.6038 60.2182 20.8359 61.5458 23.1398 62.6948L23.5861 61.8ZM10.2326 54.3966L9.27766 54.0999C8.1592 57.6997 8.40345 62.5148 10.1406 65.9212L11.0315 65.4669L11.9223 65.0126C10.446 62.1177 10.2076 57.8473 11.1876 54.6933L10.2326 54.3966ZM11.0315 65.4669L10.1406 65.9213C11.0915 67.7856 12.7687 69.668 14.6479 71.2198C16.5286 72.773 18.6979 74.0663 20.6966 74.6875L20.9934 73.7326L21.2902 72.7776C19.6102 72.2554 17.6674 71.1196 15.9214 69.6777C14.1737 68.2345 12.7093 66.5557 11.9223 65.0126L11.0315 65.4669ZM20.9934 73.7326L20.6966 74.6875C24.7449 75.9458 29.8999 75.7232 33.7384 73.6322L33.26 72.7541L32.7816 71.8759C29.488 73.6701 24.9037 73.9008 21.2902 72.7776L20.9934 73.7326ZM33.26 72.7541L33.7384 73.6322C34.7626 73.0742 35.9828 72.3072 36.9435 71.7612L36.4494 70.8918L35.9553 70.0224C34.8137 70.6712 33.8454 71.2963 32.7816 71.8759L33.26 72.7541ZM36.4494 70.8918L36.9417 71.7622L45.0521 67.1753L44.5598 66.3048L44.0675 65.4344L35.9571 70.0213L36.4494 70.8918ZM44.5598 66.3048L45.0564 67.1728C47.1248 65.9894 49.4726 64.8841 51.5569 63.3422L50.9621 62.5382L50.3674 61.7343C48.4065 63.1849 46.3238 64.1435 44.0632 65.4369L44.5598 66.3048ZM50.9621 62.5382L51.5568 63.3422C51.6039 63.3074 51.6471 63.2763 51.6913 63.2446C51.7332 63.2145 51.7815 63.1799 51.8269 63.146C51.9174 63.0785 52.0373 62.984 52.1527 62.8558C52.4085 62.5716 52.5241 62.2527 52.6123 61.9387L51.6496 61.6681L50.6869 61.3976C50.6235 61.6231 50.6092 61.5812 50.666 61.518C50.6819 61.5004 50.6852 61.5025 50.6304 61.5434C50.6031 61.5638 50.5716 61.5864 50.5251 61.6198C50.481 61.6515 50.4273 61.69 50.3675 61.7343L50.9621 62.5382ZM51.6496 61.6681L52.6191 61.9131C52.7197 61.5154 52.7655 60.8163 52.791 60.095C52.818 59.33 52.8245 58.4112 52.815 57.4957C52.8056 56.5797 52.7799 55.6578 52.7417 54.8856C52.7047 54.1393 52.6532 53.4638 52.5795 53.084L51.5979 53.2746L50.6162 53.4651C50.6584 53.6826 50.7061 54.2171 50.7441 54.9845C50.7808 55.7259 50.8059 56.6211 50.8152 57.5164C50.8244 58.4123 50.8178 59.2991 50.7922 60.0245C50.7651 60.7936 50.7188 61.2699 50.6801 61.4231L51.6496 61.6681ZM52.9963 25.4132L52.3449 24.6545C51.7988 25.1234 50.6198 25.7727 49.2628 26.5107C48.0047 27.195 46.5762 27.9646 45.8099 28.6087L46.4533 29.3742L47.0968 30.1397C47.668 29.6595 48.8633 29.0047 50.2184 28.2677C51.4748 27.5843 52.8985 26.8153 53.6477 26.1719L52.9963 25.4132ZM46.4533 29.3742L45.4798 29.6026C45.484 29.6206 45.532 29.8233 45.5433 29.8712L46.5168 29.6427L47.4903 29.4142C47.4512 29.2475 47.4561 29.2701 47.4269 29.1458L46.4533 29.3742ZM46.5168 29.6427L45.885 30.4179C47.4483 31.692 49.3938 32.8379 51.3139 33.8825C53.2779 34.951 55.1524 35.8825 56.7684 36.8114L57.2668 35.9445L57.7652 35.0775C56.1394 34.1429 54.1265 33.1359 52.2697 32.1257C50.369 31.0916 48.5604 30.0183 47.1486 28.8676L46.5168 29.6427ZM57.2668 35.9445L56.7685 36.8115C59.043 38.1189 59.9503 38.6218 61.8646 39.7674L62.3781 38.9093L62.8916 38.0512C60.9574 36.8937 60.0239 36.3759 57.7652 35.0775L57.2668 35.9445ZM62.3781 38.9093L61.8646 39.7674C62.2927 40.0236 62.7459 40.27 63.1863 40.5072C63.6331 40.7478 64.0647 40.9777 64.4791 41.2147C65.3237 41.6976 65.9843 42.1487 66.3979 42.6187L67.1486 41.9582L67.8994 41.2976C67.2522 40.5619 66.3406 39.9752 65.4718 39.4784C65.0294 39.2255 64.5689 38.9802 64.1345 38.7463C63.6938 38.5089 63.2767 38.2817 62.8916 38.0512L62.3781 38.9093ZM67.1486 41.9582L66.1488 41.9435C66.0919 45.8119 66.1461 49.8006 66.1272 53.6486L67.1272 53.6535L68.1272 53.6584C68.1463 49.7466 68.0917 45.8416 68.1485 41.9728L67.1486 41.9582ZM67.1272 53.6535L66.1272 53.6486C66.1094 57.2802 66.0498 60.6325 66.3772 64.3315L67.3733 64.2433L68.3694 64.1552C68.0521 60.5703 68.1092 57.3258 68.1272 53.6584L67.1272 53.6535ZM67.3733 64.2433L66.3968 64.4588L66.4446 64.6756L67.4211 64.4601L68.3976 64.2446L68.3498 64.0278L67.3733 64.2433ZM67.4211 64.4601L66.9178 65.3242C67.4196 65.6165 67.977 65.6214 68.4008 65.5699C68.8417 65.5163 69.2909 65.382 69.6867 65.241C70.087 65.0984 70.4822 64.9304 70.8076 64.7932C71.158 64.6455 71.3954 64.5477 71.5536 64.5007L71.2688 63.5421L70.9839 62.5836C70.6961 62.6691 70.3432 62.8185 70.0304 62.9504C69.6927 63.0928 69.3521 63.237 69.0155 63.357C68.6745 63.4785 68.3858 63.557 68.1595 63.5845C67.9161 63.6141 67.8769 63.5683 67.9244 63.596L67.4211 64.4601ZM71.2688 63.5421L71.1585 64.536C71.2098 64.5417 71.3206 64.5521 71.4281 64.5593C71.4814 64.5629 71.5457 64.5665 71.6066 64.5676C71.6362 64.5681 71.6771 64.5683 71.7214 64.5662C71.7372 64.5654 71.8579 64.5618 71.994 64.5205L71.7033 63.5636L71.4127 62.6068C71.4546 62.5941 71.4894 62.5866 71.5121 62.5823C71.5359 62.5778 71.5557 62.5751 71.5696 62.5734C71.5966 62.5701 71.6167 62.5689 71.6255 62.5685C71.6355 62.568 71.642 62.568 71.6437 62.5679C71.6457 62.5679 71.6456 62.568 71.643 62.5679C71.6374 62.5678 71.6273 62.5675 71.6121 62.5667C71.5973 62.566 71.5803 62.565 71.5615 62.5638C71.5236 62.5612 71.4836 62.558 71.4485 62.5549C71.4124 62.5517 71.3872 62.5491 71.379 62.5482L71.2688 63.5421ZM71.7033 63.5636L71.9951 64.5201C72.687 64.3091 73.6443 63.7125 74.4253 63.159C75.2173 62.5978 76.0395 61.9291 76.4314 61.4633L75.6662 60.8195L74.9011 60.1756C74.6861 60.4312 74.0468 60.976 73.2689 61.5272C72.4802 62.0862 71.7595 62.501 71.4116 62.6071L71.7033 63.5636ZM75.6662 60.8195L76.6433 60.6064L76.5915 60.3691L75.6145 60.5822L74.6374 60.7953L74.6892 61.0326L75.6662 60.8195ZM75.6145 60.5822L76.3148 61.296C76.3529 61.2586 76.3836 61.2271 76.4073 61.2024C76.4174 61.1919 76.43 61.1787 76.4352 61.1732C76.4387 61.1696 76.4412 61.167 76.4431 61.165C76.444 61.1641 76.4447 61.1634 76.4452 61.1629C76.4457 61.1624 76.4459 61.1622 76.4459 61.1622C76.4459 61.1622 76.4456 61.1625 76.445 61.163C76.4445 61.1636 76.4436 61.1644 76.4425 61.1656C76.4402 61.1677 76.4365 61.1713 76.4315 61.1759C76.4219 61.1847 76.4045 61.2002 76.3807 61.2185C76.3285 61.2586 76.2519 61.3073 76.152 61.3443C76.0557 61.38 75.9745 61.3911 75.9286 61.395C75.8894 61.3983 75.8643 61.3971 75.8785 61.3974C75.8941 61.3977 75.9047 61.3983 75.9492 61.3997C75.9864 61.4008 76.033 61.402 76.0892 61.4025L76.0969 60.4025L76.1046 59.4025C76.0106 59.4018 76.0121 59.3998 75.9201 59.3978C75.8856 59.3971 75.6798 59.3864 75.4571 59.4689C75.2117 59.5598 75.061 59.7184 75.0249 59.7548C74.9473 59.8331 74.9801 59.8037 74.9142 59.8683L75.6145 60.5822ZM76.0969 60.4025L77.0362 60.7455C77.0672 60.6607 77.0937 60.5811 77.1162 60.512C77.141 60.4362 77.1561 60.388 77.1749 60.3319C77.2113 60.2227 77.2285 60.1867 77.2345 60.1759C77.2353 60.1744 77.2297 60.1849 77.216 60.2012C77.2016 60.2183 77.1823 60.2371 77.159 60.2541C77.1087 60.2909 77.0794 60.2911 77.1145 60.2842L76.9221 59.3029L76.7297 58.3216C76.4654 58.3734 76.2084 58.4716 75.9787 58.6395C75.7474 58.8086 75.593 59.0123 75.4861 59.2047C75.3858 59.3853 75.3215 59.5678 75.278 59.698C75.2251 59.8562 75.2024 59.9368 75.1576 60.0595L76.0969 60.4025ZM76.9221 59.3029L77.4897 60.1262C77.9296 59.8229 78.1109 59.3347 78.1902 59.0982C78.2733 58.8504 78.3569 58.4853 78.3808 58.3976L77.4162 58.1339L76.4516 57.8702C76.4232 57.9742 76.3904 58.1114 76.3684 58.1989C76.3422 58.3029 76.3187 58.3888 76.294 58.4623C76.2686 58.538 76.2505 58.5744 76.2443 58.5852C76.2364 58.5988 76.2654 58.541 76.3545 58.4796L76.9221 59.3029ZM77.4162 58.1339L77.694 59.0946L77.7751 59.0711L77.4973 58.1105L77.2195 57.1499L77.1385 57.1733L77.4162 58.1339ZM77.4973 58.1105L76.9397 58.9406L77.0706 59.0285L77.6281 58.1984L78.1857 57.3683L78.0548 57.2804L77.4973 58.1105ZM77.6281 58.1984L78.3895 58.8467C78.8142 58.3479 79.0466 57.8736 79.1278 57.3169C79.1934 56.8678 79.1487 56.3358 79.1386 55.9302L78.1389 55.9552L77.1392 55.9802C77.1426 56.1161 77.1475 56.2417 77.1519 56.3531C77.1563 56.4671 77.1601 56.5626 77.1621 56.6516C77.166 56.8309 77.1613 56.9421 77.1488 57.0282C77.1317 57.1453 77.0959 57.2809 76.8668 57.5501L77.6281 58.1984ZM78.1389 55.9552L79.1291 56.0948C79.1274 56.1068 79.151 56.0029 79.2306 55.7187C79.2994 55.473 79.3886 55.1651 79.4843 54.8316C79.6678 54.1917 79.8857 53.4228 79.971 52.9855L78.9895 52.7941L78.008 52.6027C77.9433 52.9341 77.756 53.6032 77.5618 54.2802C77.4686 54.6052 77.3758 54.9257 77.3047 55.1794C77.2445 55.3945 77.1705 55.661 77.1487 55.8156L78.1389 55.9552ZM78.9895 52.7941L79.8813 53.2464C80.0098 52.9931 80.0394 52.9369 80.0727 52.8898C80.0897 52.8657 80.1232 52.8211 80.2894 52.6757L79.6311 51.923L78.9727 51.1703C78.7669 51.3503 78.5927 51.5182 78.4386 51.7366C78.3007 51.9321 78.1955 52.1487 78.0976 52.3418L78.9895 52.7941ZM79.6311 51.923L80.5385 52.3432C80.9692 51.4131 80.9072 50.6887 80.8762 49.9818L79.8772 50.0255L78.8781 50.0693C78.9108 50.8166 78.9234 51.0713 78.7236 51.5029L79.6311 51.923ZM79.8772 50.0255L80.8772 50.0274C80.8782 49.4706 80.8871 48.9134 80.9031 48.3561L79.9035 48.3273L78.9039 48.2985C78.8874 48.873 78.8783 49.4482 78.8772 50.0236L79.8772 50.0255ZM79.9035 48.3273L80.9009 48.3996C80.903 48.3704 80.9051 48.3413 80.907 48.3138C80.9089 48.2859 80.9108 48.2595 80.9126 48.2334L79.9152 48.1613L78.9179 48.0891C78.9079 48.2262 78.9156 48.1253 78.9061 48.255L79.9035 48.3273ZM79.9152 48.1613L80.8704 47.8651C80.8145 47.685 80.7628 47.4699 80.6983 47.1996C80.637 46.9425 80.5655 46.6424 80.4772 46.347C80.3124 45.7956 80.0324 45.0466 79.432 44.5493L78.7942 45.3195L78.1563 46.0896C78.2649 46.1796 78.4102 46.4153 78.561 46.9198C78.6305 47.1525 78.6895 47.3981 78.7529 47.6639C78.8132 47.9165 78.8807 48.2013 78.9601 48.4575L79.9152 48.1613ZM78.7942 45.3195L79.7833 45.1726C79.5917 43.8822 78.8815 42.2175 78.058 40.7322C77.2308 39.2403 76.2006 37.7704 75.2653 36.9028L74.5852 37.6359L73.9051 38.369C74.6165 39.029 75.5258 40.2897 76.3089 41.702C77.0956 43.121 77.6666 44.5343 77.805 45.4664L78.7942 45.3195ZM74.5852 37.6359L75.2652 36.9027C73.8701 35.6086 72.0506 34.4189 70.2302 33.3366C69.3151 32.7926 68.3857 32.2677 67.4968 31.7663C66.6039 31.2626 65.7549 30.7844 64.9825 30.3245L64.4709 31.1837L63.9593 32.043C64.756 32.5173 65.6272 33.008 66.5142 33.5083C67.4053 34.0109 68.3155 34.5251 69.2081 35.0558C71.0031 36.1229 72.6717 37.2249 73.9051 38.369L74.5852 37.6359ZM64.4709 31.1837L64.9824 30.3245C62.8993 29.0844 60.8089 27.8561 58.7118 26.64L58.2102 27.505L57.7085 28.3701C59.799 29.5824 61.8828 30.8068 63.9594 32.043L64.4709 31.1837ZM58.2102 27.505L58.7089 26.6383C56.9446 25.6231 55.5912 24.5192 53.0374 24.4141L52.9963 25.4132L52.9552 26.4124C54.8894 26.492 55.7087 27.2194 57.7114 28.3718L58.2102 27.505ZM16.3391 21.2531L16.3497 20.2531C16.2806 20.2524 16.2492 20.2502 16.1904 20.2479C16.164 20.2468 15.9901 20.2348 15.7978 20.2873C15.5877 20.3448 15.4421 20.4532 15.4026 20.4816C15.3198 20.5412 15.3494 20.5224 15.2686 20.5794L15.8449 21.3966L16.4212 22.2139C16.4632 22.1843 16.4973 22.1594 16.5239 22.1396C16.5352 22.1313 16.5499 22.1203 16.5562 22.1157C16.5649 22.1092 16.569 22.1063 16.571 22.1048C16.573 22.1034 16.5691 22.1062 16.5616 22.1112C16.5539 22.1163 16.539 22.126 16.5186 22.1375C16.4977 22.1492 16.47 22.1636 16.4363 22.1779C16.4019 22.1926 16.3648 22.2057 16.3253 22.2165C16.2448 22.2385 16.1789 22.2441 16.1427 22.2456C16.1256 22.2464 16.1136 22.2463 16.1099 22.2462C16.1062 22.2462 16.1061 22.2461 16.1127 22.2464C16.1372 22.2473 16.2217 22.2519 16.3285 22.253L16.3391 21.2531ZM15.8449 21.3966L15.7318 20.4031C15.3236 20.4496 15.0181 20.5283 14.6734 20.6338L14.966 21.59L15.2587 22.5462C15.5367 22.4611 15.7147 22.4179 15.9581 22.3902L15.8449 21.3966ZM14.966 21.59L14.6734 20.6338C8.50697 22.5207 4.59629 27.7699 3.69975 34.0343L4.68966 34.1759L5.67957 34.3176C6.48197 28.7111 9.93382 24.1756 15.2586 22.5462L14.966 21.59ZM4.68966 34.1759L3.71872 33.9366C3.64194 34.2481 3.52904 34.6592 3.40233 35.159C3.28846 35.6082 3.16469 36.1247 3.12103 36.4781L4.11349 36.6007L5.10595 36.7233C5.13155 36.5161 5.22135 36.1225 5.341 35.6505C5.4478 35.2293 5.58837 34.7083 5.6606 34.4153L4.68966 34.1759ZM4.11349 36.6007L3.13029 36.4182C3.04317 36.8875 3.02898 37.7457 3.07313 38.5108C3.09603 38.9076 3.13671 39.3191 3.20185 39.6831C3.25887 40.0018 3.35868 40.4381 3.57654 40.7685L4.41134 40.2179L5.24614 39.6674C5.27382 39.7093 5.2252 39.6361 5.17059 39.3309C5.12409 39.071 5.08993 38.7443 5.06981 38.3956C5.02793 37.6699 5.055 37.0079 5.09669 36.7833L4.11349 36.6007ZM4.41134 40.2179L4.66437 41.1854L4.72785 41.1688L4.47482 40.2013L4.22179 39.2339L4.15831 39.2505L4.41134 40.2179ZM4.47482 40.2013L5.46936 40.097C5.45344 39.9452 5.41991 39.6784 5.40468 39.4738L4.40744 39.548L3.41019 39.6222C3.42828 39.8652 3.47132 40.2203 3.48028 40.3057L4.47482 40.2013ZM4.40744 39.548L4.32203 38.5517L4.28785 38.5546L4.37326 39.5509L4.45866 40.5473L4.49284 40.5443L4.40744 39.548ZM4.37326 39.5509L4.59608 40.5258L4.63026 40.518L4.40744 39.5431L4.18461 38.5683L4.15043 38.5761L4.37326 39.5509ZM4.40744 39.5431L5.40475 39.4699C5.40326 39.4496 5.40208 39.4319 5.40119 39.4166C5.4003 39.4012 5.3998 39.39 5.39956 39.3824C5.39944 39.3787 5.39941 39.3766 5.3994 39.3759C5.39939 39.3751 5.39942 39.3766 5.39937 39.3799C5.39932 39.3831 5.39917 39.39 5.39863 39.3996C5.39812 39.4088 5.39705 39.4245 5.39465 39.4448L4.40158 39.3273L3.4085 39.2098C3.39013 39.3651 3.40522 39.5496 3.41012 39.6164L4.40744 39.5431ZM4.40158 39.3273L3.65197 39.9892L3.81408 40.1728L4.56369 39.5109L5.31329 38.849L5.15118 38.6654L4.40158 39.3273ZM4.56369 39.5109V40.5109H4.56662V39.5109V38.5109H4.56369V39.5109ZM4.56662 39.5109L3.68418 39.9813C3.66365 39.9428 3.6485 39.9083 3.63751 39.8806C3.62652 39.8529 3.61855 39.8292 3.61309 39.8118C3.60765 39.7945 3.60377 39.7804 3.6016 39.7724C3.60048 39.7682 3.5996 39.7648 3.59908 39.7628C3.5986 39.7609 3.59821 39.7594 3.59828 39.7596C3.59828 39.7596 3.59828 39.7596 3.59828 39.7597C3.59828 39.7597 3.59829 39.7597 3.59829 39.7597C3.5983 39.7597 3.59832 39.7598 3.59833 39.7598C3.59837 39.76 3.59842 39.7602 3.59849 39.7605C3.59862 39.761 3.59884 39.7618 3.59911 39.7629C3.59964 39.765 3.60053 39.7684 3.60166 39.7726C3.60383 39.7808 3.6077 39.7949 3.6131 39.8122C3.61851 39.8297 3.6264 39.8534 3.63725 39.8811C3.64809 39.9087 3.66303 39.9432 3.68327 39.9818L4.56857 39.5168L5.45387 39.0517C5.47388 39.0898 5.48862 39.1239 5.49928 39.1511C5.50995 39.1783 5.51767 39.2016 5.52293 39.2185C5.52817 39.2354 5.5319 39.249 5.53394 39.2566C5.535 39.2606 5.53582 39.2637 5.53628 39.2655C5.53669 39.2671 5.53705 39.2685 5.53691 39.268C5.5369 39.2679 5.53677 39.2674 5.53662 39.2669C5.53646 39.2662 5.53621 39.2653 5.53591 39.2641C5.53533 39.2618 5.53438 39.2582 5.53319 39.2537C5.53088 39.2451 5.52686 39.2306 5.52126 39.2127C5.51564 39.1949 5.50751 39.1707 5.49633 39.1425C5.48516 39.1144 5.46981 39.0794 5.44905 39.0405L4.56662 39.5109ZM4.56857 39.5168L3.82863 40.1894L3.84816 40.2109L4.5881 39.5382L5.32804 38.8656L5.30851 38.8441L4.56857 39.5168ZM4.5881 39.5382V38.5382H4.57833V39.5382V40.5382H4.5881V39.5382ZM4.57833 39.5382L3.68176 39.9811C3.68095 39.9795 3.70584 40.0322 3.70814 40.2198C3.71071 40.4295 3.69102 40.6029 3.67611 40.9343C3.65177 41.4754 3.6405 42.3988 4.33818 43.1385L5.06564 42.4523L5.7931 41.7661C5.71269 41.6809 5.65096 41.5384 5.67409 41.0242C5.68291 40.828 5.71144 40.4764 5.70799 40.1953C5.70427 39.892 5.66891 39.4881 5.47491 39.0953L4.57833 39.5382ZM5.06564 42.4523L5.83687 43.0889C5.91329 42.9963 6.06919 42.8109 6.14486 42.5334C6.17221 42.4331 6.18414 42.3349 6.18674 42.3163C6.19154 42.2818 6.19541 42.2545 6.20297 42.2151L5.22091 42.0265L4.23886 41.8379C4.23016 41.8832 4.2234 41.923 4.21792 41.958C4.21254 41.9923 4.20849 42.0215 4.20585 42.0405C4.20441 42.0508 4.20361 42.0565 4.20291 42.0613C4.20226 42.0658 4.20219 42.066 4.20255 42.0639C4.20321 42.0599 4.20693 42.038 4.21533 42.0072C4.22444 41.9737 4.23721 41.9366 4.25448 41.8981C4.27125 41.8607 4.2879 41.8319 4.29983 41.813C4.31093 41.7954 4.31815 41.7861 4.31639 41.7885C4.31463 41.7908 4.30847 41.7987 4.29441 41.8157L5.06564 42.4523ZM5.22091 42.0265L4.29135 42.3952C4.30057 42.4184 4.30417 42.4294 4.30489 42.4317C4.30549 42.4336 4.30202 42.423 4.29828 42.4029C4.29433 42.3816 4.29072 42.3533 4.28995 42.3198C4.28919 42.2862 4.2915 42.2562 4.29487 42.232C4.29647 42.2206 4.29815 42.2115 4.2994 42.2055C4.30003 42.2024 4.30055 42.2001 4.30091 42.1986C4.30109 42.1978 4.30123 42.1973 4.30132 42.1969C4.30142 42.1965 4.30147 42.1963 4.30147 42.1963C4.30147 42.1963 4.30142 42.1965 4.30132 42.1968C4.30122 42.1972 4.30107 42.1978 4.30086 42.1985C4.30044 42.2 4.29982 42.2022 4.29894 42.2052C4.29714 42.2113 4.2946 42.2196 4.29095 42.2311C4.28258 42.2576 4.2742 42.2828 4.25967 42.3275C4.24635 42.3684 4.23062 42.4173 4.21355 42.4733L5.17013 42.7648L6.12671 43.0563C6.15566 42.9613 6.16701 42.9316 6.19759 42.8351C6.21994 42.7645 6.25651 42.6459 6.27569 42.5084C6.32406 42.1617 6.23937 41.882 6.15047 41.6578L5.22091 42.0265ZM5.17013 42.7648L4.25771 43.1741C6.01831 47.0992 7.94206 50.4076 12.4411 52.3535L12.8381 51.4357L13.2351 50.5179C9.44512 48.8786 7.78788 46.1574 6.08255 42.3555L5.17013 42.7648ZM12.8381 51.4357L12.4411 52.3535C12.477 52.369 12.4717 52.3713 12.4488 52.3528C12.4231 52.3319 12.4074 52.3111 12.4074 52.3112C12.4103 52.3151 12.416 52.3235 12.4318 52.3478C12.4441 52.3667 12.4704 52.4078 12.4969 52.4469C12.5571 52.5355 12.6415 52.6492 12.7633 52.7692L13.4651 52.0568L14.1668 51.3443C14.1665 51.3441 14.1664 51.344 14.1654 51.3428C14.164 51.3411 14.1601 51.3361 14.1517 51.3236C14.1407 51.3074 14.1323 51.2942 14.11 51.2597C14.0911 51.2307 14.0623 51.1865 14.0278 51.1389C13.9533 51.0358 13.8519 50.9154 13.7071 50.7982C13.5652 50.6833 13.4075 50.5925 13.2351 50.5179L12.8381 51.4357ZM13.4651 52.0568L12.764 52.7699C12.9213 52.9245 13.0921 53.0033 13.2011 53.0441C13.3169 53.0875 13.4268 53.1114 13.5127 53.1258C13.6827 53.1543 13.8552 53.1612 13.9863 53.163C14.1213 53.1648 14.2575 53.1614 14.3488 53.1596C14.4727 53.1572 14.4857 53.1593 14.4626 53.1569L14.5656 52.1623L14.6687 51.1676C14.5921 51.1596 14.5181 51.1585 14.4701 51.1583C14.4168 51.158 14.36 51.159 14.31 51.16C14.2016 51.1621 14.107 51.1644 14.0137 51.1632C13.9165 51.1618 13.8634 51.1567 13.8438 51.1534C13.835 51.1519 13.8592 51.1549 13.9025 51.1711C13.939 51.1848 14.0506 51.2302 14.1661 51.3436L13.4651 52.0568ZM14.5656 52.1623L14.4623 53.1569C14.2002 53.1297 14.0344 53.002 13.9739 52.9496C13.9082 52.8926 13.8757 52.8447 13.8738 52.8419C13.8712 52.8382 13.886 52.8608 13.9328 52.9533C13.9666 53.02 14.0287 53.1467 14.0889 53.2537C14.1214 53.3114 14.1624 53.3801 14.2112 53.4499C14.2581 53.5168 14.3277 53.607 14.4219 53.6944L15.1018 52.9611L15.7816 52.2278C15.8555 52.2963 15.8715 52.3433 15.8319 52.2729C15.8 52.2161 15.7718 52.1576 15.7168 52.0491C15.6749 51.9664 15.6023 51.824 15.5135 51.6968C15.4684 51.6323 15.3931 51.533 15.2847 51.439C15.1816 51.3495 14.9733 51.1992 14.669 51.1676L14.5656 52.1623ZM15.1018 52.9611L14.4224 53.6949C14.5693 53.8309 14.7262 53.9061 14.8179 53.9452C14.9215 53.9892 15.0241 54.0209 15.1107 54.044C15.2838 54.0902 15.4669 54.1217 15.6168 54.1434C15.7712 54.1658 15.9152 54.1813 16.0157 54.1915C16.078 54.1978 16.0952 54.1993 16.1288 54.2027C16.1424 54.2041 16.1419 54.2042 16.1354 54.2033C16.1341 54.2032 16.1157 54.2009 16.0908 54.1963C16.0802 54.1943 16.0488 54.1884 16.009 54.1774C15.9895 54.172 15.9512 54.1609 15.9044 54.1421C15.8767 54.131 15.756 54.0834 15.631 53.9777L16.2766 53.214L16.9222 52.4504C16.7969 52.3445 16.6759 52.2967 16.6478 52.2854C16.6006 52.2665 16.5618 52.2552 16.5417 52.2497C16.5006 52.2383 16.4675 52.232 16.4547 52.2296C16.4254 52.2242 16.401 52.221 16.392 52.2199C16.37 52.217 16.3475 52.2147 16.3332 52.2132C16.3112 52.2109 16.2498 52.205 16.2172 52.2016C16.1277 52.1926 16.0164 52.1804 15.9037 52.1641C15.7866 52.1471 15.6908 52.1288 15.6265 52.1117C15.5945 52.1031 15.5888 52.0997 15.6012 52.1049C15.6018 52.1052 15.6846 52.1379 15.7811 52.2273L15.1018 52.9611ZM16.2766 53.214L15.5142 53.8611C15.7454 54.1335 16.0537 54.4891 16.4665 54.7546C16.9147 55.043 17.4394 55.1997 18.0715 55.1793L18.0393 54.1798L18.0071 53.1804C17.7714 53.188 17.6481 53.1367 17.5486 53.0727C17.4137 52.9858 17.2745 52.8445 17.039 52.5669L16.2766 53.214ZM18.0393 54.1798L17.1836 54.6974C17.4853 55.1963 17.7562 55.5836 18.2071 55.8488C18.3995 55.9619 18.6013 56.0379 18.7468 56.0937C18.9074 56.1552 19.0789 56.2201 19.3063 56.3231L19.719 55.4123L20.1316 54.5014C19.8439 54.371 19.6215 54.2871 19.4628 54.2262C19.2889 54.1596 19.2458 54.1395 19.2209 54.1248C19.2158 54.1218 19.2144 54.1207 19.2121 54.1186C19.2086 54.1156 19.1958 54.1042 19.172 54.0758C19.118 54.0114 19.0355 53.8947 18.8949 53.6623L18.0393 54.1798ZM19.719 55.4123L19.3044 56.3223C19.0899 56.2246 19.0079 56.0707 19.0578 56.1425C19.0692 56.1589 19.0839 56.1817 19.1135 56.2285C19.1392 56.2691 19.1766 56.3285 19.218 56.3895C19.3705 56.6142 19.7219 57.0903 20.3805 57.2212L20.5754 56.2404L20.7703 55.2596C20.9298 55.2913 20.9671 55.4052 20.8731 55.2667C20.8529 55.2369 20.8329 55.2053 20.8036 55.1591C20.7782 55.119 20.7403 55.0589 20.6998 55.0006C20.6597 54.9429 20.5991 54.8606 20.5196 54.7784C20.4411 54.6973 20.3142 54.5846 20.1336 54.5023L19.719 55.4123ZM20.5754 56.2404L20.3204 57.2073C20.5662 57.2722 20.6941 57.3012 20.8536 57.3456C20.9911 57.3839 21.0707 57.4128 21.1283 57.4401C21.203 57.4756 21.3051 57.5342 21.4879 57.7941L22.3059 57.2189L23.1239 56.6437C22.7918 56.1715 22.4416 55.8498 21.9864 55.6335C21.6105 55.455 21.1574 55.3597 20.8304 55.2735L20.5754 56.2404ZM22.3059 57.2189L22.2449 58.217C22.2638 58.2182 22.5046 58.23 22.7252 58.2409C22.9674 58.2529 23.1719 58.263 23.1615 58.2623L23.2326 57.2648L23.3038 56.2673C23.285 56.266 23.0372 56.2539 22.8236 56.2433C22.7097 56.2377 22.5954 56.2321 22.5083 56.2278C22.4146 56.2231 22.3647 56.2206 22.3669 56.2208L22.3059 57.2189ZM23.2326 57.2648L22.2652 57.518C22.4022 58.0415 22.6783 58.4433 23.0504 58.7276C23.3979 58.9932 23.7772 59.1156 24.056 59.1871C24.197 59.2233 24.3366 59.2521 24.4429 59.2745C24.5591 59.2989 24.6386 59.3163 24.7055 59.3348C24.8643 59.3788 24.7759 59.3859 24.6803 59.2667L25.4602 58.6408L26.2401 58.0149C25.9243 57.6214 25.4885 57.4765 25.2398 57.4075C25.1029 57.3696 24.9636 57.3402 24.8544 57.3172C24.7352 57.2922 24.6428 57.2729 24.5533 57.25C24.3715 57.2033 24.2969 57.1631 24.2647 57.1385C24.2571 57.1326 24.2276 57.1168 24.2001 57.0116L23.2326 57.2648ZM25.4602 58.6408L24.4768 58.8223C24.4898 58.8931 24.4955 58.9354 24.503 58.9868C24.5059 59.0066 24.5241 59.1652 24.5919 59.3264C24.6763 59.5273 24.7986 59.6553 24.8534 59.7108C24.8794 59.7371 24.9079 59.7642 24.9244 59.78C24.9444 59.7992 24.9641 59.818 24.9874 59.8409L25.6887 59.1281L26.39 58.4152C26.3557 58.3815 26.3271 58.3542 26.3067 58.3346C26.296 58.3244 26.2892 58.3178 26.2834 58.3123C26.2778 58.3069 26.2765 58.3055 26.2775 58.3065C26.2785 58.3075 26.2846 58.3138 26.2935 58.3238C26.3026 58.334 26.3166 58.3502 26.3327 58.3717C26.3493 58.3937 26.3677 58.4207 26.3863 58.4525C26.405 58.4847 26.4215 58.5178 26.4357 58.5515C26.4637 58.6182 26.4761 58.6718 26.4807 58.6939C26.4819 58.6997 26.4828 58.7041 26.4833 58.7069C26.4835 58.7082 26.4837 58.7093 26.4838 58.71C26.4839 58.7107 26.484 58.711 26.484 58.711C26.484 58.7111 26.484 58.7108 26.4839 58.7102C26.4838 58.7096 26.4836 58.7087 26.4834 58.7075C26.4831 58.7051 26.4826 58.7018 26.4819 58.6973C26.4762 58.6579 26.4648 58.5745 26.4436 58.4592L25.4602 58.6408ZM25.6887 59.1281L25.4587 60.1013C25.8037 60.1828 26.0632 60.2033 26.2622 60.2098C26.4019 60.2145 26.3753 60.2113 26.4485 60.2145C26.48 60.2159 26.4547 60.217 26.4087 60.2055C26.2646 60.1696 26.1934 60.0887 26.2179 60.1151C26.2668 60.1678 26.3628 60.2927 26.5546 60.5875L27.3928 60.0421L28.231 59.4968C28.0376 59.1995 27.8609 58.9454 27.6842 58.755C27.4832 58.5382 27.2335 58.35 26.8927 58.265C26.6578 58.2064 26.3641 58.2121 26.3285 58.2109C26.2286 58.2076 26.1055 58.199 25.9186 58.1549L25.6887 59.1281ZM27.3928 60.0421L26.5545 60.5874C26.7116 60.8289 26.9246 60.9486 27.0187 60.9968C27.1321 61.055 27.2436 61.093 27.3245 61.1177C27.4831 61.1661 27.6696 61.2055 27.7953 61.233C27.9448 61.2657 28.051 61.2903 28.1328 61.3159C28.2413 61.3498 28.1808 61.3485 28.0844 61.264L28.7434 60.5119L29.4024 59.7597C29.1655 59.5522 28.8814 59.4545 28.7298 59.407C28.5513 59.3512 28.3607 59.3094 28.2231 59.2793C28.0618 59.244 27.971 59.2239 27.9087 59.2049C27.8791 59.1959 27.8942 59.1981 27.9311 59.217C27.9487 59.2261 28.1049 59.303 28.2311 59.4969L27.3928 60.0421ZM28.7434 60.5119L27.7488 60.6158L27.783 60.9429L28.7776 60.839L29.7721 60.7351L29.738 60.408L28.7434 60.5119ZM28.7776 60.839L28.3233 61.7299C28.5222 61.8313 28.8682 61.9524 29.1713 62.0357C29.332 62.0798 29.5151 62.1229 29.6925 62.1485C29.8223 62.1672 30.1199 62.2058 30.415 62.1164L30.1252 61.1593L29.8354 60.2022C29.8928 60.1849 29.9377 60.1785 29.9623 60.1758C29.988 60.173 30.0049 60.173 30.0103 60.1731C30.0194 60.1731 30.0101 60.1736 29.9776 60.1689C29.9124 60.1595 29.8166 60.1388 29.7008 60.1071C29.5885 60.0762 29.4755 60.0399 29.3813 60.0063C29.2764 59.9688 29.2291 59.9468 29.2318 59.9481L28.7776 60.839ZM30.1252 61.1593L30.4191 62.1152C30.4388 62.1091 30.6036 62.0542 30.659 62.0314L30.2785 61.1066L29.8981 60.1818C29.9086 60.1775 29.9167 60.1743 29.9198 60.1732C29.9237 60.1717 29.9266 60.1706 29.9281 60.17C29.931 60.169 29.9325 60.1684 29.9319 60.1687C29.9308 60.1691 29.9275 60.1702 29.9216 60.1723C29.9101 60.1763 29.8943 60.1817 29.8776 60.1875C29.8609 60.1932 29.8446 60.1987 29.8321 60.203C29.8258 60.2051 29.8211 60.2066 29.8183 60.2076C29.8168 60.2081 29.8166 60.2082 29.8172 60.208C29.8176 60.2078 29.8187 60.2075 29.8204 60.2069C29.8216 60.2065 29.8257 60.2052 29.8313 60.2035L30.1252 61.1593ZM30.2785 61.1066L30.6562 62.0325C30.6438 62.0376 30.6793 62.024 30.803 61.9968C30.9125 61.9727 31.0381 61.949 31.1843 61.921C31.3206 61.8948 31.4792 61.864 31.6193 61.8304C31.7193 61.8064 31.9513 61.7509 32.1475 61.6364L31.6438 60.7726L31.14 59.9088C31.2062 59.8702 31.2495 59.8587 31.23 59.865C31.2205 59.8681 31.1964 59.8751 31.1528 59.8856C31.0641 59.9069 30.9498 59.9295 30.8074 59.9568C30.6749 59.9822 30.5161 60.0121 30.3736 60.0434C30.2454 60.0716 30.0616 60.1151 29.9008 60.1807L30.2785 61.1066ZM31.6438 60.7726L32.1486 61.6358C33.076 61.0935 34.1469 60.3804 35.0048 59.8618L34.4875 59.006L33.9702 58.1502C32.9211 58.7843 32.1252 59.3326 31.1389 59.9094L31.6438 60.7726ZM34.4875 59.006L35.0049 59.8618C35.9545 59.2877 36.852 58.7398 37.7962 58.2183L37.3127 57.3429L36.8292 56.4676C35.843 57.0123 34.907 57.5839 33.9702 58.1502L34.4875 59.006ZM37.3127 57.3429L37.7973 58.2177C38.0201 58.0943 38.1925 57.9066 38.2778 57.8075C38.3726 57.6973 38.5025 57.5276 38.5876 57.3425L37.6789 56.925L36.7703 56.5074C36.7817 56.4826 36.7905 56.4676 36.7926 56.464C36.7954 56.4593 36.7958 56.4592 36.7929 56.4633C36.7866 56.4723 36.7755 56.4871 36.7615 56.5033C36.7549 56.511 36.749 56.5175 36.744 56.5227C36.739 56.528 36.7363 56.5304 36.7364 56.5303C36.7366 56.5302 36.7379 56.5289 36.7405 56.5268C36.743 56.5246 36.7473 56.521 36.7535 56.5164C36.7595 56.5117 36.7685 56.5052 36.7801 56.4974C36.7916 56.4897 36.8077 56.4795 36.8281 56.4682L37.3127 57.3429ZM37.6789 56.925L38.5881 57.3414C38.849 56.7718 38.7456 56.2506 38.5686 55.8515L37.6545 56.257L36.7404 56.6624C36.7607 56.7083 36.7488 56.6976 36.746 56.6502C36.7446 56.6254 36.746 56.5972 36.7515 56.5684C36.757 56.5399 36.7648 56.5194 36.7698 56.5085L37.6789 56.925ZM37.6545 56.257L38.5686 55.8515C38.3734 55.4115 38.069 55.0886 37.8081 54.8552C37.5737 54.6455 37.2517 54.4089 37.1063 54.2923L36.4807 55.0724L35.855 55.8525C36.1328 56.0753 36.2844 56.1756 36.4746 56.3457C36.6381 56.492 36.709 56.5918 36.7404 56.6625L37.6545 56.257ZM36.4807 55.0724L37.4673 55.2352C37.484 55.1344 37.4734 55.2008 37.4917 55.09L36.5051 54.9269L35.5185 54.7638C35.5148 54.7858 35.5111 54.8082 35.5069 54.8329C35.5028 54.8569 35.4984 54.8831 35.494 54.9097L36.4807 55.0724ZM36.5051 54.9269L37.0065 54.0617C36.3135 53.66 35.4067 53.3334 34.8216 53.0966L34.4465 54.0236L34.0714 54.9506C34.783 55.2385 35.4716 55.4837 36.0036 55.7921L36.5051 54.9269ZM34.4465 54.0236L34.8216 53.0966C34.3845 52.9197 33.9526 52.937 33.8449 52.9388L33.8615 53.9386L33.8782 54.9385C33.9366 54.9375 33.9754 54.9373 34.0164 54.9413C34.0583 54.9454 34.0743 54.9517 34.0714 54.9506L34.4465 54.0236ZM33.8615 53.9386L34.3479 53.0649L22.9417 46.7153L22.4553 47.589L21.9689 48.4628L33.3751 54.8124L33.8615 53.9386ZM22.4553 47.589L22.9498 46.7199C22.2018 46.2943 21.1934 45.7477 20.1327 45.1376C19.0808 44.5325 18.1398 43.9551 17.6421 43.5543L17.0149 44.3332L16.3876 45.112C17.0261 45.6262 18.1025 46.277 19.1355 46.8712C20.1596 47.4603 21.3034 48.0841 21.9608 48.4582L22.4553 47.589ZM17.0149 44.3332L17.9406 43.955C17.6146 43.1571 17.5625 42.413 17.6051 41.5827C17.6271 41.1529 17.672 40.7311 17.7158 40.2426C17.7584 39.7677 17.7974 39.2522 17.7951 38.7051L16.7951 38.7091L15.7951 38.7132C15.797 39.1645 15.7649 39.605 15.7238 40.0641C15.6838 40.5097 15.6323 40.9998 15.6077 41.4803C15.5569 42.4705 15.6106 43.5401 16.0891 44.7114L17.0149 44.3332ZM16.7951 38.7091L17.7951 38.7051C17.7718 32.9955 17.9699 27.142 17.5108 21.346L16.5139 21.425L15.517 21.5039C15.9682 27.2003 15.7714 32.9013 15.7951 38.7132L16.7951 38.7091ZM16.5139 21.425C17.2151 20.712 17.2151 20.712 17.2151 20.712C17.2151 20.712 17.2151 20.712 17.2151 20.712C17.215 20.712 17.215 20.712 17.215 20.7119C17.215 20.7119 17.215 20.7119 17.2149 20.7119C17.2149 20.7118 17.2148 20.7117 17.2146 20.7115C17.2143 20.7112 17.2139 20.7108 17.2133 20.7102C17.2121 20.7091 17.2104 20.7074 17.2082 20.7052C17.2038 20.7009 17.1975 20.6947 17.1899 20.6873C17.1748 20.6723 17.1544 20.6523 17.1335 20.6318C17.0921 20.5911 17.0478 20.5475 17.0394 20.5393L16.3391 21.2531L15.6387 21.9669C15.646 21.9741 15.6891 22.0164 15.7312 22.0578C15.7521 22.0783 15.7724 22.0984 15.7876 22.1133C15.7952 22.1207 15.8015 22.1269 15.8058 22.1312C15.808 22.1333 15.8097 22.135 15.8109 22.1362C15.8115 22.1368 15.8119 22.1372 15.8122 22.1375C15.8124 22.1376 15.8125 22.1378 15.8126 22.1378C15.8126 22.1379 15.8127 22.1379 15.8127 22.1379C15.8127 22.1379 15.8127 22.1379 15.8127 22.1379C15.8127 22.1379 15.8127 22.1379 15.8127 22.1379C15.8127 22.1379 15.8127 22.1379 16.5139 21.425ZM42.2131 32.5636L42.4272 31.5868C41.7809 31.4451 41.2467 31.5649 40.771 31.7439L41.1233 32.6798L41.4755 33.6157C41.7408 33.5159 41.8621 33.5104 41.999 33.5404L42.2131 32.5636ZM41.1233 32.6798L40.7708 31.744C40.2837 31.9274 39.8261 32.1725 39.4156 32.4083C38.969 32.6649 38.6455 32.869 38.2601 33.0812L38.7424 33.9572L39.2247 34.8332C39.6105 34.6208 40.0664 34.341 40.412 34.1424C40.7936 33.9232 41.1408 33.7418 41.4757 33.6157L41.1233 32.6798ZM38.7424 33.9572L38.2601 33.0812C36.3692 34.1222 34.3674 35.1813 32.4975 36.3959L33.0422 37.2345L33.5869 38.0732C35.3783 36.9096 37.2909 35.8978 39.2247 34.8332L38.7424 33.9572ZM33.0422 37.2345L32.4541 36.4257C31.9553 36.7884 31.689 37.3315 31.5353 37.8008C31.3764 38.2862 31.2957 38.8239 31.2528 39.3265C31.168 40.3201 31.2189 41.3908 31.2239 41.914L32.2238 41.9044L33.2238 41.8949C33.2177 41.2606 33.1715 40.3645 33.2456 39.4965C33.2821 39.0683 33.3448 38.7016 33.436 38.4232C33.4808 38.2864 33.5265 38.1896 33.5665 38.1249C33.6061 38.0609 33.6308 38.0429 33.6303 38.0433L33.0422 37.2345ZM32.2238 41.9044L31.2239 41.914C31.2389 43.4747 31.2223 45.1895 31.3093 46.802L32.3078 46.7482L33.3064 46.6944C33.2226 45.1407 33.2393 43.5105 33.2238 41.8949L32.2238 41.9044ZM32.3078 46.7482L31.3233 46.5728C31.256 46.951 31.2876 47.5582 31.3851 48.0567C31.4358 48.3153 31.5186 48.6242 31.6617 48.8998C31.7824 49.1324 32.0877 49.6116 32.6991 49.7085L32.8557 48.7209L33.0122 47.7332C33.1948 47.7621 33.3161 47.8501 33.3756 47.9067C33.4298 47.9583 33.445 47.9942 33.4369 47.9786C33.4186 47.9434 33.3815 47.844 33.3479 47.6725C33.3165 47.5122 33.2974 47.3361 33.2904 47.1803C33.2827 47.0085 33.2925 46.9226 33.2923 46.9236L32.3078 46.7482ZM32.8557 48.7209L32.408 49.6151C32.5811 49.7017 32.7641 49.8185 32.99 49.9696C33.1992 50.1096 33.4622 50.291 33.7277 50.4451L34.2297 49.5802L34.7317 48.7154C34.5372 48.6025 34.3476 48.4716 34.102 48.3073C33.8731 48.1541 33.599 47.9747 33.3033 47.8267L32.8557 48.7209ZM34.2297 49.5802L33.7276 50.445C34.3881 50.8285 36.1416 51.8542 37.8838 52.771C38.7531 53.2285 39.6374 53.6684 40.3914 53.9897C40.7674 54.15 41.1291 54.2886 41.4509 54.3849C41.74 54.4715 42.1149 54.562 42.467 54.5316L42.3811 53.5353L42.2952 52.539C42.3446 52.5347 42.2793 52.5453 42.0246 52.469C41.8026 52.4025 41.5168 52.2953 41.1756 52.1499C40.4952 51.8599 39.6664 51.4491 38.8152 51.0011C37.1163 50.1071 35.3994 49.103 34.7318 48.7154L34.2297 49.5802ZM42.3811 53.5353L42.4672 54.5316C42.9768 54.4875 43.4501 54.2538 43.7093 54.1195L43.2492 53.2316L42.7892 52.3437C42.5325 52.4767 42.3714 52.5324 42.2949 52.539L42.3811 53.5353ZM43.2492 53.2316L43.7094 54.1194C44.1578 53.887 44.5783 53.6185 44.9594 53.3728C45.3527 53.1192 45.7018 52.8915 46.0614 52.6937L45.5793 51.8175L45.0973 50.9414C44.6631 51.1803 44.2484 51.4516 43.8757 51.6919C43.4909 51.94 43.1432 52.1602 42.789 52.3438L43.2492 53.2316ZM45.5793 51.8175L46.0613 52.6937C47.6744 51.8064 49.5459 50.9087 51.1952 49.8214L50.6447 48.9865L50.0943 48.1516C48.5315 49.1819 46.852 49.9761 45.0973 50.9414L45.5793 51.8175ZM50.6447 48.9865L51.1952 49.8213C51.5487 49.5883 51.8443 49.3211 52.1118 49.0073L51.3508 48.3586L50.5898 47.7098C50.4366 47.8896 50.2808 48.0287 50.0943 48.1516L50.6447 48.9865ZM51.3508 48.3586L52.2093 48.8713C52.4843 48.411 52.6009 47.7594 52.6674 47.2007C52.74 46.5907 52.772 45.8858 52.7844 45.1924C52.808 43.871 52.7575 42.2964 52.7609 41.6775L51.761 41.672L50.761 41.6665C50.7564 42.5068 50.8097 43.7581 50.7847 45.1566C50.7728 45.8232 50.7424 46.4516 50.6814 46.9644C50.6509 47.2206 50.6146 47.4317 50.5744 47.5953C50.5545 47.6762 50.5354 47.7382 50.5187 47.7835C50.5015 47.8302 50.4911 47.8478 50.4923 47.8458L51.3508 48.3586ZM51.761 41.672L52.7609 41.6773C52.7633 41.2273 52.6794 40.3427 52.5846 39.5172C52.4879 38.6749 52.3681 37.7958 52.2814 37.3264L51.2981 37.508L50.3147 37.6895C50.3885 38.0891 50.5021 38.9125 50.5977 39.7453C50.6952 40.5948 50.7626 41.3578 50.761 41.6668L51.761 41.672ZM51.2981 37.508L51.9894 36.7855C51.9181 36.7172 51.8477 36.6503 51.7974 36.6023L51.1067 37.3253L50.4159 38.0484C50.4747 38.1046 50.5331 38.16 50.6067 38.2305L51.2981 37.508ZM51.1067 37.3253L51.7462 36.5566C51.4265 36.2906 50.7467 35.8656 49.9775 35.4118C49.1775 34.9398 48.1967 34.3884 47.2121 33.856C46.2281 33.3239 45.232 32.8062 44.4022 32.4031C43.9878 32.2019 43.6075 32.0255 43.2869 31.8892C42.9871 31.7618 42.6761 31.6415 42.4276 31.5869L42.2131 32.5636L41.9986 33.5404C42.0468 33.5509 42.2056 33.6028 42.5045 33.7298C42.7826 33.848 43.1299 34.0086 43.5283 34.2021C44.3237 34.5885 45.2926 35.0917 46.2608 35.6153C47.2284 36.1385 48.187 36.6776 48.9613 37.1344C49.7664 37.6094 50.2955 37.9513 50.4671 38.0941L51.1067 37.3253ZM47.5461 9.28628L48.213 8.54117C43.7959 4.58755 37.7314 2.84279 31.9335 5.0221L32.2854 5.95816L32.6372 6.89422C37.6094 5.02528 42.9069 6.47592 46.8792 10.0314L47.5461 9.28628ZM32.2854 5.95816L31.9675 5.01003C31.6414 5.11936 31.3262 5.25705 31.0573 5.37437C30.7738 5.49809 30.5385 5.60061 30.3094 5.67896L30.633 6.62515L30.9566 7.57134C31.2778 7.46151 31.591 7.32363 31.8572 7.20745C32.1381 7.08488 32.374 6.98316 32.6032 6.90629L32.2854 5.95816ZM30.633 6.62515L30.3095 5.67894C24.4563 7.68036 20.231 13.8962 19.4778 19.8632L20.4699 19.9884L21.4621 20.1137C22.1389 14.7515 25.9613 9.27944 30.9566 7.57136L30.633 6.62515ZM20.4699 19.9884L19.6311 19.4441C19.4629 19.7032 19.3861 20.0346 19.346 20.2268C19.2955 20.4688 19.2572 20.7416 19.2298 21.0024C19.1796 21.4822 19.1493 22.0876 19.2034 22.4373L20.1916 22.2843L21.1798 22.1314C21.181 22.1386 21.1775 22.116 21.1756 22.0512C21.174 21.9922 21.1741 21.9161 21.1766 21.8257C21.1818 21.6447 21.1962 21.4277 21.2189 21.2109C21.2419 20.992 21.2715 20.7902 21.3038 20.6352C21.3201 20.5575 21.3343 20.5044 21.3443 20.4733C21.3583 20.4299 21.3521 20.466 21.3088 20.5328L20.4699 19.9884ZM20.1916 22.2843L19.1966 22.1843C19.0893 23.2514 19.1299 24.8164 19.1291 25.8089L20.1291 25.8097L21.1291 25.8105C21.13 24.7057 21.0925 23.3199 21.1866 22.3844L20.1916 22.2843ZM20.1291 25.8097L19.1291 25.8096L19.1281 31.7598L20.1281 31.7599L21.1281 31.7601L21.1291 25.8099L20.1291 25.8097ZM20.1281 31.7599L19.1281 31.7606L19.132 37.1454L20.132 37.1447L21.132 37.144L21.1281 31.7592L20.1281 31.7599ZM20.132 37.1447L19.132 37.1459C19.1329 37.9054 19.1002 39.524 19.1893 40.3705L20.1838 40.2658L21.1783 40.1611C21.1036 39.452 21.1331 38.0243 21.132 37.1435L20.132 37.1447ZM20.1838 40.2658L19.1864 40.1935C19.1406 40.8261 19.0818 41.479 19.546 42.3067L20.4182 41.8175L21.2904 41.3284C21.1421 41.0639 21.1368 40.9501 21.1812 40.3381L20.1838 40.2658ZM20.4182 41.8175L19.8355 42.6302C20.0924 42.8144 20.2187 42.8992 20.5577 43.0415L20.9445 42.1193L21.3314 41.1971C21.2221 41.1513 21.1922 41.1349 21.1752 41.125C21.1495 41.1099 21.1184 41.0891 21.0009 41.0048L20.4182 41.8175ZM20.9445 42.1193L20.5128 43.0213C21.6418 43.5618 22.7055 44.1505 23.7873 44.7571C24.8619 45.3598 25.9603 45.9837 27.1207 46.5681L27.5705 45.675L28.0203 44.7818C26.909 44.2221 25.8555 43.624 24.7656 43.0127C23.6829 42.4055 22.5694 41.7885 21.3763 41.2173L20.9445 42.1193ZM27.5705 45.675L27.0963 46.5554L27.5514 46.8005L28.0256 45.9201L28.4998 45.0397L28.0447 44.7945L27.5705 45.675ZM28.0256 45.9201L27.8151 46.8977C28.1994 46.9804 28.8325 47.0153 29.3537 46.5042L28.6535 45.7902L27.9534 45.0762C27.9817 45.0484 28.0203 45.0191 28.0685 44.995C28.1163 44.971 28.1615 44.9581 28.198 44.9519C28.264 44.9407 28.2879 44.9536 28.2361 44.9425L28.0256 45.9201ZM28.6535 45.7902L29.6455 45.9165C29.7775 44.8801 29.7605 43.5769 29.7736 42.6361L28.7736 42.6222L27.7737 42.6083C27.7593 43.6496 27.7748 44.7746 27.6615 45.6639L28.6535 45.7902ZM28.7736 42.6222L29.7735 42.6362C29.8116 39.905 29.6955 37.1416 29.6436 34.4603L28.6438 34.4796L27.644 34.499C27.6971 37.2425 27.8112 39.9207 27.7737 42.6083L28.7736 42.6222ZM28.6438 34.4796L28.8674 33.505C28.8239 33.495 28.7674 33.4824 28.7118 33.4734C28.6837 33.4688 28.6385 33.4621 28.5849 33.4588C28.5403 33.4561 28.4346 33.4515 28.3057 33.4779C28.1756 33.5046 27.9176 33.5852 27.7153 33.8398C27.5075 34.1014 27.4904 34.3796 27.4975 34.5204C27.5041 34.65 27.5351 34.7495 27.5412 34.7695C27.5473 34.7899 27.5608 34.8301 27.5538 34.8088C27.5443 34.7802 27.4567 34.5293 27.5682 34.2296C27.6716 33.9518 27.8663 33.8379 27.8942 33.8222L28.385 34.6935L28.8757 35.5648C29.0533 35.4648 29.3141 35.2726 29.4426 34.9271C29.5076 34.7525 29.5204 34.5849 29.5077 34.4429C29.4959 34.3111 29.4624 34.2103 29.4528 34.1813C29.4423 34.1496 29.4524 34.1803 29.456 34.1922C29.4598 34.2047 29.4672 34.2303 29.4744 34.2637C29.4815 34.2962 29.4915 34.3505 29.495 34.419C29.5018 34.5534 29.4858 34.8264 29.2813 35.0839C29.0822 35.3344 28.8296 35.4121 28.7076 35.4371C28.5869 35.4619 28.4921 35.4569 28.4619 35.455C28.4227 35.4526 28.3953 35.4482 28.3891 35.4471C28.3775 35.4453 28.3814 35.4454 28.4201 35.4543L28.6438 34.4796ZM28.385 34.6935L29.3476 34.4225C29.2776 34.1739 29.2469 33.6912 29.2449 33.0416C29.2433 32.4762 29.2648 31.7503 29.2455 31.2813L28.2463 31.3224L27.2471 31.3635C27.2648 31.7929 27.2429 32.3521 27.2449 33.0475C27.2467 33.6586 27.2669 34.4121 27.4224 34.9645L28.385 34.6935ZM28.2463 31.3224L29.2455 31.2813C29.1892 29.9138 29.2254 28.3873 29.2557 26.8235C29.2856 25.2779 29.3097 23.6958 29.2199 22.2843L28.2219 22.3478L27.2239 22.4113C27.3076 23.7269 27.2862 25.2273 27.256 26.7848C27.2262 28.3242 27.1878 29.9214 27.2471 31.3635L28.2463 31.3224ZM28.2219 22.3478L29.2077 22.5157C29.2795 22.0939 29.386 21.9358 29.7512 21.4231L28.9367 20.8429L28.1222 20.2627C27.739 20.8008 27.3899 21.2768 27.2361 22.1799L28.2219 22.3478ZM28.9367 20.8429L29.2209 21.8017C29.5141 21.7148 29.9321 21.5093 30.3238 21.3052C30.7471 21.0844 31.2421 20.8097 31.7323 20.5312C32.7058 19.978 33.7147 19.3783 34.1144 19.1469L33.6135 18.2814L33.1126 17.4159C32.6751 17.6691 31.7151 18.2406 30.7442 18.7923C30.2621 19.0662 29.7911 19.3273 29.3991 19.5317C29.2029 19.634 29.0331 19.7187 28.8955 19.7823C28.827 19.814 28.7706 19.8386 28.726 19.8567C28.7039 19.8657 28.6864 19.8723 28.6731 19.8771C28.6666 19.8795 28.6616 19.8812 28.658 19.8824C28.6543 19.8836 28.6526 19.8842 28.6526 19.8841L28.9367 20.8429ZM33.6135 18.2814L34.1205 19.1433L44.9184 12.7918L44.4113 11.9298L43.9043 11.0679L33.1065 17.4195L33.6135 18.2814ZM44.4113 11.9298L44.9235 12.7887C45.1286 12.6664 45.398 12.539 45.7432 12.3796C46.0695 12.2291 46.4565 12.053 46.8203 11.8556C47.1825 11.6592 47.5731 11.4151 47.9016 11.1051C48.2339 10.7915 48.5475 10.3677 48.6635 9.81359L47.6848 9.60855L46.706 9.40351C46.6997 9.43393 46.672 9.51551 46.5289 9.65054C46.3821 9.78907 46.1633 9.93676 45.8668 10.0976C45.5721 10.2574 45.2512 10.404 44.9051 10.5637C44.578 10.7147 44.2105 10.8853 43.8992 11.0709L44.4113 11.9298ZM47.6848 9.60855L48.6706 9.44057C48.6518 9.33016 48.6178 9.20011 48.5682 9.07282C48.5312 8.97772 48.4314 8.73692 48.2137 8.54173L47.5461 9.28628L46.8785 10.0308C46.793 9.95413 46.7487 9.88248 46.7334 9.85638C46.715 9.82497 46.7066 9.80383 46.7048 9.79906C46.7023 9.7928 46.7015 9.79142 46.699 9.77653L47.6848 9.60855ZM61.4367 11.9191L61.633 10.9385C58.6309 10.3376 55.5249 10.5075 52.6062 11.4326L52.9084 12.3859L53.2106 13.3391C55.8069 12.5162 58.5698 12.365 61.2405 12.8996L61.4367 11.9191ZM52.9084 12.3859L52.6119 11.4308C50.2119 12.1759 48.2792 13.5281 46.3553 14.6257L46.8508 15.4943L47.3463 16.3629C49.4763 15.1477 51.0816 14 53.2049 13.3409L52.9084 12.3859ZM46.8508 15.4943L46.3553 14.6257C41.7433 17.2568 36.6872 19.8668 32.1721 22.8013L32.717 23.6398L33.262 24.4783C37.7146 21.5843 42.6298 19.0536 47.3463 16.3629L46.8508 15.4943ZM32.717 23.6398L31.8265 23.1848C31.5209 23.7829 31.3649 24.5828 31.2747 25.3717C31.1814 26.1884 31.1474 27.1101 31.143 28.0209C31.1345 29.8265 31.2451 31.7256 31.2731 32.7349L32.2727 32.7072L33.2723 32.6795C33.2416 31.5732 33.1346 29.7992 33.143 28.0304C33.1472 27.1539 33.1802 26.313 33.2618 25.5988C33.3466 24.8568 33.4733 24.3573 33.6075 24.0948L32.717 23.6398ZM32.2727 32.7072L32.7437 33.5893C32.919 33.4957 33.1536 33.3966 33.3832 33.3106L33.0324 32.3742L32.6816 31.4377C32.416 31.5372 32.0886 31.6718 31.8016 31.8251L32.2727 32.7072ZM33.0324 32.3742L33.3833 33.3106C34.3782 32.9378 35.2488 32.4298 36.0517 31.9168C36.8857 31.3839 37.5813 30.8916 38.3815 30.4242L37.8772 29.5607L37.3728 28.6972C36.5343 29.187 35.7048 29.7651 34.9748 30.2315C34.2137 30.7178 33.4813 31.1381 32.6815 31.4378L33.0324 32.3742ZM37.8772 29.5607L38.3756 30.4276L48.6979 24.4931L48.1994 23.6261L47.701 22.7592L37.3787 28.6938L37.8772 29.5607ZM48.1994 23.6261L48.7036 24.4897C49.4134 24.0754 50.077 23.5893 50.6662 23.1698C51.2759 22.7356 51.8092 22.3702 52.3372 22.1103C52.8542 21.8559 53.3212 21.7263 53.7867 21.7328C54.2448 21.7393 54.7829 21.8788 55.4421 22.2937L55.9748 21.4474L56.5075 20.6011C55.5892 20.023 54.6972 19.7454 53.8148 19.733C52.9397 19.7207 52.1559 19.9704 51.4539 20.3159C50.7629 20.656 50.1092 21.1112 49.5061 21.5406C48.8825 21.9846 48.3076 22.4051 47.6953 22.7625L48.1994 23.6261ZM55.9748 21.4474L55.4421 22.2937C59.6761 24.9589 64.0842 27.3529 68.3755 29.8157L68.8733 28.9484L69.371 28.0811C65.0249 25.5868 60.6957 23.2374 56.5075 20.6011L55.9748 21.4474ZM68.8733 28.9484L67.8771 28.8604C67.8669 28.976 67.8493 29.206 67.88 29.4469C67.9035 29.6311 67.9923 30.1533 68.4819 30.4649L69.0188 29.6212L69.5556 28.7776C69.7188 28.8814 69.7972 29.0145 69.8297 29.0867C69.8462 29.1234 69.8546 29.152 69.8586 29.1678C69.8627 29.184 69.8639 29.1934 69.8639 29.1939C69.864 29.1948 69.8635 29.1908 69.8631 29.1814C69.8627 29.1721 69.8626 29.1599 69.8629 29.1445C69.8634 29.1128 69.8658 29.0771 69.8694 29.0364L68.8733 28.9484ZM69.0188 29.6212L68.4827 30.4654C69.6228 31.1895 70.7303 31.9902 72.2116 32.4733L72.5217 31.5226L72.8317 30.5719C71.6546 30.188 70.8185 29.5795 69.5548 28.7771L69.0188 29.6212ZM72.5217 31.5226L72.6375 32.5159C72.7608 32.5015 72.9429 32.4797 73.1382 32.4018C73.2321 32.3643 73.3085 32.3226 73.3636 32.2907C73.411 32.2632 73.4714 32.2259 73.5116 32.2015L72.9924 31.3468L72.4732 30.4922C72.4587 30.501 72.4453 30.5092 72.4333 30.5165C72.4209 30.524 72.4106 30.5303 72.4009 30.5363C72.381 30.5484 72.3695 30.5552 72.3617 30.5598C72.3464 30.5686 72.364 30.5574 72.3974 30.544C72.4144 30.5373 72.4312 30.5316 72.4466 30.5272C72.4613 30.523 72.4714 30.5209 72.4744 30.5204C72.4768 30.5199 72.4735 30.5206 72.4613 30.5223C72.4491 30.5241 72.4317 30.5263 72.4059 30.5293L72.5217 31.5226ZM72.9924 31.3468L72.5979 32.2657C72.8834 32.3883 73.2107 32.4701 73.5582 32.4373C73.9255 32.4025 74.2406 32.2461 74.483 32.0148C74.9113 31.6064 75.0509 31.0259 75.1136 30.6496C75.1839 30.2277 75.1983 29.7723 75.2047 29.4094C75.212 28.9991 75.2106 28.7487 75.2292 28.5857L74.2356 28.4728L73.242 28.3599C73.2092 28.6484 73.2106 29.0619 73.2051 29.3738C73.1987 29.7332 73.1845 30.0582 73.1408 30.3209C73.0894 30.6293 73.0294 30.6375 73.1026 30.5676C73.1676 30.5056 73.2664 30.4559 73.3698 30.4462C73.4533 30.4383 73.4692 30.4633 73.3869 30.4279L72.9924 31.3468ZM74.2356 28.4728L75.2292 28.5857C75.9778 21.9968 72.838 17.1479 67.7594 13.564L67.1828 14.381L66.6062 15.1981C71.2711 18.49 73.8856 22.6951 73.242 28.3599L74.2356 28.4728ZM67.1828 14.381L67.7594 13.564C65.7189 12.1239 64.0623 11.4493 61.6425 10.9405L61.4367 11.9191L61.2309 12.8977C63.4104 13.356 64.8093 13.9299 66.6062 15.198L67.1828 14.381Z" fill="black" mask="url(#path-1-outside-1_14_29)"/>
</svg>
