<svg width="80" height="92" viewBox="0 0 80 92" fill="none" xmlns="http://www.w3.org/2000/svg">
<path d="M67.4072 0.223646C67.7526 -0.0687677 67.7329 -0.00331482 68.1514 0.0322395C68.7644 0.96897 68.5591 23.1638 68.5234 25.7002C72.2019 25.7138 76.3488 25.6376 80 25.7617C79.9299 28.584 79.9502 31.4698 79.9746 34.2969C80.0661 44.8817 79.8626 55.501 79.9775 66.082L72.833 66.1104C71.5937 66.1169 69.7069 66.2071 68.5361 66.0342C68.5314 69.4715 68.8383 90.4702 68.2119 92C67.0484 92.0403 62.0908 86.6459 60.7656 85.6358C54.5733 80.9157 49.3663 74.9356 43.0635 70.4102C42.7114 72.9616 42.807 75.5914 42.8086 78.1738L42.8174 89.0244C41.0448 89.0349 38.953 88.9875 37.2051 89.0508C37.2386 86.2594 37.5737 72.2038 36.8145 70.6211L36.5342 70.4258C33.5943 72.1083 29.7457 76.2988 27.1152 78.5762C24.5014 80.8392 21.7962 83.2246 19.084 85.4092C17.8552 86.399 12.8942 91.8646 11.835 91.7608C11.336 91.1063 11.4706 68.8443 11.5469 66.1289L0 66.0645C0.207329 61.5701 0.0364147 55.7327 0.0361328 51.1299L0.0341797 25.8067C3.57393 25.5793 7.87933 25.7701 11.4941 25.7139C11.5076 22.3906 11.2225 1.72287 11.8174 0.163099C12.8423 0.394868 18.1501 5.97532 19.5254 7.01368C25.6656 11.6492 30.5762 17.3361 36.7988 21.8779C37.5612 19.6071 37.1264 16.5525 37.2422 14.0742C37.8775 13.1422 36.8487 2.6608 37.6455 1.34376C37.8635 1.20812 37.8997 1.17149 38.1611 1.12404C39.5342 1.16946 41.3393 0.862552 42.459 1.34669C42.6953 1.63961 42.7123 1.79831 42.8008 2.15919L42.8232 14.1465C42.8235 15.4833 42.6338 20.7869 43.1904 21.5186C44.3054 21.5143 50.5004 15.3931 51.5732 14.3555C54.5234 11.5017 57.7719 9.12203 60.8623 6.44533C63.0974 4.50947 65.0901 2.09597 67.4072 0.223646ZM43.0723 36.0381C42.6778 38.0533 42.8509 40.3967 42.8203 42.457C42.794 44.2362 42.8026 46.0713 42.8164 47.8516C42.8513 52.3632 42.7203 56.8933 42.8955 61.3985C42.9295 62.2301 44.936 64.1038 45.5947 64.6289C51.0886 69.0086 56.0477 73.9978 61.4238 78.5137C61.714 78.7575 62.2458 79.0805 62.6084 79.1582C63.0872 77.5598 62.9413 75.2807 62.9346 73.585C62.9104 67.538 63.0084 61.4784 62.8809 55.4336C62.8332 53.1737 62.0575 52.1694 60.3135 50.7998C54.3504 46.1172 49.1394 40.5727 43.0723 36.0381ZM36.627 35.7735C33.0982 38.1956 29.7823 41.9914 26.4375 44.7666C23.9044 46.8683 21.3631 49.155 18.834 51.2695C16.5934 53.1429 17.097 55.4608 17.0986 58.1592L17.1152 64.9707C17.1205 66.64 16.9267 77.7289 17.3379 78.7832C17.4979 78.909 17.5895 78.9997 17.7852 79.0635C21.4999 75.7647 25.1539 72.411 28.8564 69.0889C31.1737 66.8996 33.8994 65.0959 36.0225 62.7217C36.7646 61.8919 37.184 61.2177 37.1953 60.083C37.2695 52.6434 37.2165 45.1951 37.1992 37.7549C37.1977 37.1354 37.1158 36.1837 36.627 35.7735ZM74.334 31.7451C67.2742 31.8281 60.2007 31.6933 53.1396 31.7617C52.7555 31.7654 52.4013 31.7594 52.0195 31.8096C51.2961 31.8384 48.5826 31.7941 48.1826 32.2217C48.8411 33.0782 50.682 34.4568 51.5566 35.293C56.461 39.9816 61.6794 44.2895 66.751 48.791C67.1634 49.1571 68.1421 50.1554 68.2559 50.6338C68.7729 52.808 68.5008 58.0568 68.5381 60.0869C69.1344 60.0903 69.9221 60.071 70.5 60.127C71.7163 60.1348 73.1615 60.1071 74.3594 60.169C74.3799 50.8195 74.4891 41.0768 74.334 31.7451ZM31.4248 32.1895C30.2667 31.3069 15.0949 31.943 12.8018 31.7568C11.0511 31.6148 7.67248 32.0469 5.69434 31.7188C5.50977 38.5836 5.7345 45.6279 5.64941 52.5059C5.61911 54.9562 5.72405 57.6198 5.62891 60.0469C7.58212 60.1198 9.53674 60.1464 11.4912 60.1279C11.5319 57.1188 11.3594 53.7342 11.6055 50.7979C11.7159 49.4797 15.8863 46.2525 16.9932 45.293C21.0625 41.7887 24.9726 38.2406 28.9014 34.584C29.4768 34.0487 31.336 32.8445 31.4248 32.1895ZM62.2529 12.7959C61.1035 13.6299 49.0583 24.4559 48.667 25.1377C48.8906 25.5324 49.0971 25.5259 49.5615 25.6416C53.2323 25.8537 59.1638 25.7885 62.9082 25.7129C62.9153 24.1508 63.3253 13.8084 62.5312 12.9951C62.4397 12.9015 62.3809 12.8348 62.2529 12.7959ZM17.3271 13.0322C16.8599 16.6927 17.1886 21.8917 17.1104 25.6983C21.1011 25.7163 27.2667 25.9187 31.043 25.6231C31.0924 25.4563 31.1571 25.3868 31.0693 25.2266C30.3494 23.9125 19.0324 14.0742 17.3271 13.0322Z" fill="black"/>
</svg>
